<svg width="18" height="19" viewBox="0 0 18 19" fill="none" xmlns="http://www.w3.org/2000/svg">
<path id="check-circle" d="M9.01758 18.7549C5.7832 18.7549 2.83008 17.0674 1.21289 14.2549C-0.404297 11.4775 -0.404297 8.06738 1.21289 5.25488C2.83008 2.47754 5.7832 0.754883 9.01758 0.754883C12.2168 0.754883 15.1699 2.47754 16.7871 5.25488C18.4043 8.06738 18.4043 11.4775 16.7871 14.2549C15.1699 17.0674 12.2168 18.7549 9.01758 18.7549ZM12.9902 8.10254H12.9551C13.3066 7.78613 13.3066 7.25879 12.9551 6.90723C12.6387 6.59082 12.1113 6.59082 11.7949 6.90723L7.89258 10.8447L6.24023 9.19238C5.88867 8.84082 5.36133 8.84082 5.04492 9.19238C4.69336 9.50879 4.69336 10.0361 5.04492 10.3525L7.29492 12.6025C7.61133 12.9541 8.13867 12.9541 8.49023 12.6025L12.9902 8.10254Z" fill="#075985"/>
</svg>
