<svg width="24" height="24" viewBox="0 0 24 24" fill="none" xmlns="http://www.w3.org/2000/svg">
<path d="M12.5 4C14.1562 4 15.5 5.34375 15.5 7V12C15.5 13.6562 14.1562 15 12.5 15C10.8438 15 9.5 13.6562 9.5 12V7C9.5 5.34375 10.8438 4 12.5 4ZM8.5 10.75V12C8.5 14.2188 10.2812 16 12.5 16C14.6875 16 16.5 14.2188 16.5 12V10.75C16.5 10.3438 16.8125 10 17.25 10C17.6562 10 18 10.3438 18 10.75V12C18 14.8125 15.9062 17.0938 13.25 17.4688V18.5H14.75C15.1562 18.5 15.5 18.8438 15.5 19.25C15.5 19.6875 15.1562 20 14.75 20H12.5H10.25C9.8125 20 9.5 19.6875 9.5 19.25C9.5 18.8438 9.8125 18.5 10.25 18.5H11.75V17.4688C9.0625 17.0938 7 14.8125 7 12V10.75C7 10.3438 7.3125 10 7.75 10C8.15625 10 8.5 10.3438 8.5 10.75Z" fill="white"/>
</svg>
