<svg width="20" height="20" viewBox="0 0 20 20" fill="none" xmlns="http://www.w3.org/2000/svg">
<path d="M14.1543 0.732422C15.1309 -0.244141 16.7324 -0.244141 17.709 0.732422L19.2324 2.25586C20.209 3.23242 20.209 4.83398 19.2324 5.81055L17.3574 7.68555L12.2793 2.60742L14.1543 0.732422ZM11.3809 3.50586L16.459 8.58398L7.35742 17.6855C6.9668 18.0762 6.45898 18.3887 5.91211 18.5449L1.18555 19.9512C0.873047 20.0293 0.521484 19.9512 0.287109 19.6777C0.0136719 19.4434 -0.0644531 19.0918 0.0527344 18.7793L1.41992 14.0527C1.57617 13.5059 1.88867 12.998 2.2793 12.6074L11.3809 3.50586Z" fill="#1E1F3B"/>
</svg>
