<svg width="1045" height="184" viewBox="0 0 1045 184" fill="none" xmlns="http://www.w3.org/2000/svg">
<g opacity="0.4" clip-path="url(#clip0_359_8324)">
<path opacity="0.7" d="M251 14C256.393 14 260.75 18.357 260.75 23.75V160.25C260.75 165.643 256.393 170 251 170C245.607 170 241.25 165.643 241.25 160.25V23.75C241.25 18.357 245.607 14 251 14ZM309.5 33.5C314.893 33.5 319.25 37.857 319.25 43.25V140.75C319.25 146.143 314.893 150.5 309.5 150.5C304.107 150.5 299.75 146.143 299.75 140.75V43.25C299.75 37.857 304.107 33.5 309.5 33.5ZM192.5 72.5C197.893 72.5 202.25 76.857 202.25 82.25V101.75C202.25 107.143 197.893 111.5 192.5 111.5C187.107 111.5 182.75 107.143 182.75 101.75V82.25C182.75 76.857 187.107 72.5 192.5 72.5Z" fill="#271FA9"/>
<path d="M231.5 53C231.5 47.607 227.143 43.25 221.75 43.25C216.357 43.25 212 47.607 212 53V131C212 136.393 216.357 140.75 221.75 140.75C227.143 140.75 231.5 136.393 231.5 131V53ZM290 62.75C290 57.357 285.643 53 280.25 53C274.857 53 270.5 57.357 270.5 62.75V121.25C270.5 126.643 274.857 131 280.25 131C285.643 131 290 126.643 290 121.25V62.75ZM153.5 92C153.5 94.5859 154.527 97.0658 156.356 98.8943C158.184 100.723 160.664 101.75 163.25 101.75C165.836 101.75 168.316 100.723 170.144 98.8943C171.973 97.0658 173 94.5859 173 92C173 89.4141 171.973 86.9342 170.144 85.1057C168.316 83.2772 165.836 82.25 163.25 82.25C160.664 82.25 158.184 83.2772 156.356 85.1057C154.527 86.9342 153.5 89.4141 153.5 92ZM329 92C329 94.5859 330.027 97.0658 331.856 98.8943C333.684 100.723 336.164 101.75 338.75 101.75C341.336 101.75 343.816 100.723 345.644 98.8943C347.473 97.0658 348.5 94.5859 348.5 92C348.5 89.4141 347.473 86.9342 345.644 85.1057C343.816 83.2772 341.336 82.25 338.75 82.25C336.164 82.25 333.684 83.2772 331.856 85.1057C330.027 86.9342 329 89.4141 329 92Z" fill="#271FA9"/>
</g>
<path d="M381.909 74.3636H383.591L387.545 84.0227H387.682L391.636 74.3636H393.318V86H392V77.1591H391.886L388.25 86H386.977L383.341 77.1591H383.227V86H381.909V74.3636ZM399.257 86.1818C398.53 86.1818 397.888 85.9981 397.331 85.6307C396.774 85.2595 396.339 84.7367 396.024 84.0625C395.71 83.3845 395.553 82.5833 395.553 81.6591C395.553 80.7424 395.71 79.947 396.024 79.2727C396.339 78.5985 396.776 78.0777 397.337 77.7102C397.897 77.3428 398.545 77.1591 399.28 77.1591C399.848 77.1591 400.297 77.2538 400.626 77.4432C400.96 77.6288 401.214 77.8409 401.388 78.0795C401.566 78.3144 401.704 78.5076 401.803 78.6591H401.916V77.2727H403.257V86H401.962V84.6591H401.803C401.704 84.8182 401.564 85.0189 401.382 85.2614C401.2 85.5 400.941 85.714 400.604 85.9034C400.267 86.089 399.818 86.1818 399.257 86.1818ZM399.439 84.9773C399.977 84.9773 400.431 84.8371 400.803 84.5568C401.174 84.2727 401.456 83.8807 401.649 83.3807C401.842 82.8769 401.939 82.2955 401.939 81.6364C401.939 80.9848 401.844 80.4148 401.655 79.9261C401.465 79.4337 401.185 79.0511 400.814 78.7784C400.443 78.5019 399.984 78.3636 399.439 78.3636C398.871 78.3636 398.397 78.5095 398.018 78.8011C397.643 79.089 397.361 79.4811 397.172 79.9773C396.986 80.4697 396.893 81.0227 396.893 81.6364C396.893 82.2576 396.988 82.822 397.178 83.3295C397.371 83.8333 397.655 84.2348 398.03 84.5341C398.409 84.8295 398.878 84.9773 399.439 84.9773ZM407.149 82.8182L407.126 81.1591H407.399L411.217 77.2727H412.876L408.808 81.3864H408.695L407.149 82.8182ZM405.899 86V74.3636H407.24V86H405.899ZM411.445 86L408.036 81.6818L408.99 80.75L413.149 86H411.445ZM417.902 86.1818C417.061 86.1818 416.336 85.9962 415.726 85.625C415.12 85.25 414.652 84.7273 414.322 84.0568C413.997 83.3826 413.834 82.5985 413.834 81.7045C413.834 80.8106 413.997 80.0227 414.322 79.3409C414.652 78.6553 415.11 78.1212 415.697 77.7386C416.288 77.3523 416.978 77.1591 417.766 77.1591C418.22 77.1591 418.669 77.2348 419.112 77.3864C419.555 77.5379 419.959 77.7841 420.322 78.125C420.686 78.4621 420.976 78.9091 421.192 79.4659C421.408 80.0227 421.516 80.7083 421.516 81.5227V82.0909H414.788V80.9318H420.152C420.152 80.4394 420.054 80 419.857 79.6136C419.663 79.2273 419.387 78.9223 419.027 78.6989C418.671 78.4754 418.25 78.3636 417.766 78.3636C417.232 78.3636 416.769 78.4962 416.379 78.7614C415.993 79.0227 415.696 79.3636 415.487 79.7841C415.279 80.2045 415.175 80.6553 415.175 81.1364V81.9091C415.175 82.5682 415.288 83.1269 415.516 83.5852C415.747 84.0398 416.067 84.3864 416.476 84.625C416.885 84.8598 417.36 84.9773 417.902 84.9773C418.254 84.9773 418.572 84.928 418.857 84.8295C419.144 84.7273 419.393 84.5758 419.601 84.375C419.809 84.1705 419.97 83.9167 420.084 83.6136L421.379 83.9773C421.243 84.4167 421.014 84.803 420.692 85.1364C420.37 85.4659 419.972 85.7235 419.499 85.9091C419.025 86.0909 418.493 86.1818 417.902 86.1818ZM431.351 86.1818C430.624 86.1818 429.982 85.9981 429.425 85.6307C428.868 85.2595 428.432 84.7367 428.118 84.0625C427.804 83.3845 427.646 82.5833 427.646 81.6591C427.646 80.7424 427.804 79.947 428.118 79.2727C428.432 78.5985 428.87 78.0777 429.43 77.7102C429.991 77.3428 430.639 77.1591 431.374 77.1591C431.942 77.1591 432.391 77.2538 432.72 77.4432C433.054 77.6288 433.307 77.8409 433.482 78.0795C433.66 78.3144 433.798 78.5076 433.896 78.6591H434.01V77.2727H435.351V86H434.055V84.6591H433.896C433.798 84.8182 433.658 85.0189 433.476 85.2614C433.294 85.5 433.035 85.714 432.697 85.9034C432.36 86.089 431.911 86.1818 431.351 86.1818ZM431.533 84.9773C432.071 84.9773 432.525 84.8371 432.896 84.5568C433.268 84.2727 433.55 83.8807 433.743 83.3807C433.936 82.8769 434.033 82.2955 434.033 81.6364C434.033 80.9848 433.938 80.4148 433.749 79.9261C433.559 79.4337 433.279 79.0511 432.908 78.7784C432.536 78.5019 432.078 78.3636 431.533 78.3636C430.964 78.3636 430.491 78.5095 430.112 78.8011C429.737 79.089 429.455 79.4811 429.266 79.9773C429.08 80.4697 428.987 81.0227 428.987 81.6364C428.987 82.2576 429.082 82.822 429.271 83.3295C429.464 83.8333 429.749 84.2348 430.124 84.5341C430.502 84.8295 430.972 84.9773 431.533 84.9773ZM443.834 80.75V86H442.493V77.2727H443.788V78.6364H443.902C444.107 78.1932 444.417 77.8371 444.834 77.5682C445.25 77.2955 445.788 77.1591 446.447 77.1591C447.038 77.1591 447.555 77.2803 447.999 77.5227C448.442 77.7614 448.786 78.125 449.033 78.6136C449.279 79.0985 449.402 79.7121 449.402 80.4545V86H448.061V80.5455C448.061 79.8598 447.883 79.3258 447.527 78.9432C447.171 78.5568 446.682 78.3636 446.061 78.3636C445.633 78.3636 445.25 78.4564 444.913 78.642C444.58 78.8277 444.317 79.0985 444.124 79.4545C443.93 79.8106 443.834 80.2424 443.834 80.75ZM455.511 86.1818C454.67 86.1818 453.945 85.9962 453.335 85.625C452.729 85.25 452.261 84.7273 451.932 84.0568C451.606 83.3826 451.443 82.5985 451.443 81.7045C451.443 80.8106 451.606 80.0227 451.932 79.3409C452.261 78.6553 452.72 78.1212 453.307 77.7386C453.898 77.3523 454.587 77.1591 455.375 77.1591C455.83 77.1591 456.278 77.2348 456.722 77.3864C457.165 77.5379 457.568 77.7841 457.932 78.125C458.295 78.4621 458.585 78.9091 458.801 79.4659C459.017 80.0227 459.125 80.7083 459.125 81.5227V82.0909H452.398V80.9318H457.761C457.761 80.4394 457.663 80 457.466 79.6136C457.273 79.2273 456.996 78.9223 456.636 78.6989C456.28 78.4754 455.86 78.3636 455.375 78.3636C454.841 78.3636 454.379 78.4962 453.989 78.7614C453.602 79.0227 453.305 79.3636 453.097 79.7841C452.888 80.2045 452.784 80.6553 452.784 81.1364V81.9091C452.784 82.5682 452.898 83.1269 453.125 83.5852C453.356 84.0398 453.676 84.3864 454.085 84.625C454.494 84.8598 454.97 84.9773 455.511 84.9773C455.864 84.9773 456.182 84.928 456.466 84.8295C456.754 84.7273 457.002 84.5758 457.21 84.375C457.419 84.1705 457.58 83.9167 457.693 83.6136L458.989 83.9773C458.852 84.4167 458.623 84.803 458.301 85.1364C457.979 85.4659 457.581 85.7235 457.108 85.9091C456.634 86.0909 456.102 86.1818 455.511 86.1818ZM463.142 86L460.483 77.2727H461.892L463.778 83.9545H463.869L465.733 77.2727H467.165L469.006 83.9318H469.097L470.983 77.2727H472.392L469.733 86H468.415L466.506 79.2955H466.369L464.46 86H463.142ZM478.665 86V77.2727H479.96V78.5909H480.051C480.206 78.1591 480.492 77.8087 480.909 77.5398C481.326 77.2708 481.797 77.1364 482.324 77.1364C482.566 77.1364 482.778 77.1648 482.96 77.2216C483.142 77.2784 483.301 77.3561 483.438 77.4545L482.983 78.5909C482.888 78.5417 482.777 78.5038 482.648 78.4773C482.523 78.447 482.377 78.4318 482.21 78.4318C481.786 78.4318 481.407 78.5208 481.074 78.6989C480.744 78.8769 480.483 79.1193 480.29 79.4261C480.1 79.733 480.006 80.0833 480.006 80.4773V86H478.665ZM488.199 86.1818C487.358 86.1818 486.633 85.9962 486.023 85.625C485.417 85.25 484.949 84.7273 484.619 84.0568C484.294 83.3826 484.131 82.5985 484.131 81.7045C484.131 80.8106 484.294 80.0227 484.619 79.3409C484.949 78.6553 485.407 78.1212 485.994 77.7386C486.585 77.3523 487.275 77.1591 488.062 77.1591C488.517 77.1591 488.966 77.2348 489.409 77.3864C489.852 77.5379 490.256 77.7841 490.619 78.125C490.983 78.4621 491.273 78.9091 491.489 79.4659C491.705 80.0227 491.812 80.7083 491.812 81.5227V82.0909H485.085V80.9318H490.449C490.449 80.4394 490.35 80 490.153 79.6136C489.96 79.2273 489.684 78.9223 489.324 78.6989C488.968 78.4754 488.547 78.3636 488.062 78.3636C487.528 78.3636 487.066 78.4962 486.676 78.7614C486.29 79.0227 485.992 79.3636 485.784 79.7841C485.576 80.2045 485.472 80.6553 485.472 81.1364V81.9091C485.472 82.5682 485.585 83.1269 485.812 83.5852C486.044 84.0398 486.364 84.3864 486.773 84.625C487.182 84.8598 487.657 84.9773 488.199 84.9773C488.551 84.9773 488.869 84.928 489.153 84.8295C489.441 84.7273 489.689 84.5758 489.898 84.375C490.106 84.1705 490.267 83.9167 490.381 83.6136L491.676 83.9773C491.54 84.4167 491.311 84.803 490.989 85.1364C490.667 85.4659 490.269 85.7235 489.795 85.9091C489.322 86.0909 488.79 86.1818 488.199 86.1818ZM497.398 86.1818C496.58 86.1818 495.875 85.9886 495.284 85.6023C494.693 85.2159 494.239 84.6837 493.92 84.0057C493.602 83.3277 493.443 82.553 493.443 81.6818C493.443 80.7955 493.606 80.0133 493.932 79.3352C494.261 78.6534 494.72 78.1212 495.307 77.7386C495.898 77.3523 496.587 77.1591 497.375 77.1591C497.989 77.1591 498.542 77.2727 499.034 77.5C499.527 77.7273 499.93 78.0455 500.244 78.4545C500.559 78.8636 500.754 79.3409 500.83 79.8864H499.489C499.386 79.4886 499.159 79.1364 498.807 78.8295C498.458 78.5189 497.989 78.3636 497.398 78.3636C496.875 78.3636 496.417 78.5 496.023 78.7727C495.633 79.0417 495.328 79.4223 495.108 79.9148C494.892 80.4034 494.784 80.9773 494.784 81.6364C494.784 82.3106 494.89 82.8977 495.102 83.3977C495.318 83.8977 495.621 84.286 496.011 84.5625C496.405 84.839 496.867 84.9773 497.398 84.9773C497.746 84.9773 498.062 84.9167 498.347 84.7955C498.631 84.6742 498.871 84.5 499.068 84.2727C499.265 84.0455 499.405 83.7727 499.489 83.4545H500.83C500.754 83.9697 500.566 84.4337 500.267 84.8466C499.972 85.2557 499.58 85.5814 499.091 85.8239C498.606 86.0625 498.042 86.1818 497.398 86.1818ZM506.335 86.1818C505.547 86.1818 504.856 85.9943 504.261 85.6193C503.67 85.2443 503.208 84.7197 502.875 84.0455C502.545 83.3712 502.381 82.5833 502.381 81.6818C502.381 80.7727 502.545 79.9792 502.875 79.3011C503.208 78.6231 503.67 78.0966 504.261 77.7216C504.856 77.3466 505.547 77.1591 506.335 77.1591C507.123 77.1591 507.813 77.3466 508.403 77.7216C508.998 78.0966 509.46 78.6231 509.79 79.3011C510.123 79.9792 510.29 80.7727 510.29 81.6818C510.29 82.5833 510.123 83.3712 509.79 84.0455C509.46 84.7197 508.998 85.2443 508.403 85.6193C507.813 85.9943 507.123 86.1818 506.335 86.1818ZM506.335 84.9773C506.934 84.9773 507.426 84.8239 507.812 84.517C508.199 84.2102 508.485 83.8068 508.67 83.3068C508.856 82.8068 508.949 82.2652 508.949 81.6818C508.949 81.0985 508.856 80.5549 508.67 80.0511C508.485 79.5473 508.199 79.1402 507.812 78.8295C507.426 78.5189 506.934 78.3636 506.335 78.3636C505.737 78.3636 505.244 78.5189 504.858 78.8295C504.472 79.1402 504.186 79.5473 504 80.0511C503.814 80.5549 503.722 81.0985 503.722 81.6818C503.722 82.2652 503.814 82.8068 504 83.3068C504.186 83.8068 504.472 84.2102 504.858 84.517C505.244 84.8239 505.737 84.9773 506.335 84.9773ZM512.337 86V77.2727H513.632V78.5909H513.723C513.878 78.1591 514.164 77.8087 514.581 77.5398C514.998 77.2708 515.469 77.1364 515.996 77.1364C516.238 77.1364 516.45 77.1648 516.632 77.2216C516.814 77.2784 516.973 77.3561 517.109 77.4545L516.655 78.5909C516.56 78.5417 516.448 78.5038 516.32 78.4773C516.195 78.447 516.049 78.4318 515.882 78.4318C515.458 78.4318 515.079 78.5208 514.746 78.6989C514.416 78.8769 514.155 79.1193 513.962 79.4261C513.772 79.733 513.678 80.0833 513.678 80.4773V86H512.337ZM521.507 86.1818C520.78 86.1818 520.138 85.9981 519.581 85.6307C519.024 85.2595 518.589 84.7367 518.274 84.0625C517.96 83.3845 517.803 82.5833 517.803 81.6591C517.803 80.7424 517.96 79.947 518.274 79.2727C518.589 78.5985 519.026 78.0777 519.587 77.7102C520.147 77.3428 520.795 77.1591 521.53 77.1591C522.098 77.1591 522.547 77.2538 522.876 77.4432C523.21 77.6288 523.464 77.8409 523.638 78.0795C523.816 78.3144 523.954 78.5076 524.053 78.6591H524.166V74.3636H525.507V86H524.212V84.6591H524.053C523.954 84.8182 523.814 85.0189 523.632 85.2614C523.45 85.5 523.191 85.714 522.854 85.9034C522.517 86.089 522.068 86.1818 521.507 86.1818ZM521.689 84.9773C522.227 84.9773 522.681 84.8371 523.053 84.5568C523.424 84.2727 523.706 83.8807 523.899 83.3807C524.092 82.8769 524.189 82.2955 524.189 81.6364C524.189 80.9848 524.094 80.4148 523.905 79.9261C523.715 79.4337 523.435 79.0511 523.064 78.7784C522.693 78.5019 522.234 78.3636 521.689 78.3636C521.121 78.3636 520.647 78.5095 520.268 78.8011C519.893 79.089 519.611 79.4811 519.422 79.9773C519.236 80.4697 519.143 81.0227 519.143 81.6364C519.143 82.2576 519.238 82.822 519.428 83.3295C519.621 83.8333 519.905 84.2348 520.28 84.5341C520.659 84.8295 521.128 84.9773 521.689 84.9773ZM528.149 86V77.2727H529.49V86H528.149ZM528.831 75.8182C528.57 75.8182 528.344 75.7292 528.155 75.5511C527.969 75.3731 527.876 75.1591 527.876 74.9091C527.876 74.6591 527.969 74.4451 528.155 74.267C528.344 74.089 528.57 74 528.831 74C529.092 74 529.316 74.089 529.501 74.267C529.691 74.4451 529.786 74.6591 529.786 74.9091C529.786 75.1591 529.691 75.3731 529.501 75.5511C529.316 75.7292 529.092 75.8182 528.831 75.8182ZM533.287 80.75V86H531.946V77.2727H533.241V78.6364H533.355C533.56 78.1932 533.87 77.8371 534.287 77.5682C534.704 77.2955 535.241 77.1591 535.901 77.1591C536.491 77.1591 537.009 77.2803 537.452 77.5227C537.895 77.7614 538.24 78.125 538.486 78.6136C538.732 79.0985 538.855 79.7121 538.855 80.4545V86H537.514V80.5455C537.514 79.8598 537.336 79.3258 536.98 78.9432C536.624 78.5568 536.135 78.3636 535.514 78.3636C535.086 78.3636 534.704 78.4564 534.366 78.642C534.033 78.8277 533.77 79.0985 533.577 79.4545C533.384 79.8106 533.287 80.2424 533.287 80.75ZM544.828 89.4545C544.18 89.4545 543.624 89.3712 543.158 89.2045C542.692 89.0417 542.304 88.8258 541.993 88.5568C541.686 88.2917 541.442 88.0076 541.26 87.7045L542.328 86.9545C542.449 87.1136 542.603 87.2955 542.788 87.5C542.974 87.7083 543.228 87.8883 543.55 88.0398C543.875 88.1951 544.302 88.2727 544.828 88.2727C545.533 88.2727 546.114 88.1023 546.572 87.7614C547.031 87.4205 547.26 86.8864 547.26 86.1591V84.3864H547.146C547.048 84.5455 546.908 84.7424 546.726 84.9773C546.548 85.2083 546.29 85.4148 545.953 85.5966C545.62 85.7746 545.169 85.8636 544.601 85.8636C543.896 85.8636 543.264 85.697 542.703 85.3636C542.146 85.0303 541.705 84.5455 541.379 83.9091C541.057 83.2727 540.896 82.5 540.896 81.5909C540.896 80.697 541.054 79.9186 541.368 79.2557C541.682 78.589 542.12 78.0739 542.68 77.7102C543.241 77.3428 543.889 77.1591 544.624 77.1591C545.192 77.1591 545.643 77.2538 545.976 77.4432C546.313 77.6288 546.571 77.8409 546.749 78.0795C546.93 78.3144 547.071 78.5076 547.169 78.6591H547.305V77.2727H548.601V86.25C548.601 87 548.43 87.6098 548.089 88.0795C547.752 88.553 547.298 88.8996 546.726 89.1193C546.158 89.3428 545.525 89.4545 544.828 89.4545ZM544.783 84.6591C545.321 84.6591 545.775 84.536 546.146 84.2898C546.518 84.0436 546.8 83.6894 546.993 83.2273C547.186 82.7652 547.283 82.2121 547.283 81.5682C547.283 80.9394 547.188 80.3845 546.999 79.9034C546.809 79.4223 546.529 79.0455 546.158 78.7727C545.786 78.5 545.328 78.3636 544.783 78.3636C544.214 78.3636 543.741 78.5076 543.362 78.7955C542.987 79.0833 542.705 79.4697 542.516 79.9545C542.33 80.4394 542.237 80.9773 542.237 81.5682C542.237 82.1742 542.332 82.7102 542.521 83.1761C542.714 83.6383 542.999 84.0019 543.374 84.267C543.752 84.5284 544.222 84.6591 544.783 84.6591ZM552.987 84.4091L552.896 85.0227C552.832 85.4545 552.733 85.9167 552.601 86.4091C552.472 86.9015 552.338 87.3655 552.197 87.8011C552.057 88.2367 551.942 88.5833 551.851 88.8409H550.828C550.877 88.5985 550.942 88.2784 551.021 87.8807C551.101 87.483 551.18 87.0379 551.26 86.5455C551.343 86.0568 551.411 85.5568 551.464 85.0455L551.533 84.4091H552.987ZM561.939 86L559.28 77.2727H560.689L562.575 83.9545H562.666L564.53 77.2727H565.962L567.803 83.9318H567.893L569.78 77.2727H571.189L568.53 86H567.212L565.303 79.2955H565.166L563.257 86H561.939ZM576.324 86.1818C575.483 86.1818 574.758 85.9962 574.148 85.625C573.542 85.25 573.074 84.7273 572.744 84.0568C572.419 83.3826 572.256 82.5985 572.256 81.7045C572.256 80.8106 572.419 80.0227 572.744 79.3409C573.074 78.6553 573.532 78.1212 574.119 77.7386C574.71 77.3523 575.4 77.1591 576.188 77.1591C576.642 77.1591 577.091 77.2348 577.534 77.3864C577.977 77.5379 578.381 77.7841 578.744 78.125C579.108 78.4621 579.398 78.9091 579.614 79.4659C579.83 80.0227 579.938 80.7083 579.938 81.5227V82.0909H573.21V80.9318H578.574C578.574 80.4394 578.475 80 578.278 79.6136C578.085 79.2273 577.809 78.9223 577.449 78.6989C577.093 78.4754 576.672 78.3636 576.188 78.3636C575.653 78.3636 575.191 78.4962 574.801 78.7614C574.415 79.0227 574.117 79.3636 573.909 79.7841C573.701 80.2045 573.597 80.6553 573.597 81.1364V81.9091C573.597 82.5682 573.71 83.1269 573.938 83.5852C574.169 84.0398 574.489 84.3864 574.898 84.625C575.307 84.8598 575.782 84.9773 576.324 84.9773C576.676 84.9773 576.994 84.928 577.278 84.8295C577.566 84.7273 577.814 84.5758 578.023 84.375C578.231 84.1705 578.392 83.9167 578.506 83.6136L579.801 83.9773C579.665 84.4167 579.436 84.803 579.114 85.1364C578.792 85.4659 578.394 85.7235 577.92 85.9091C577.447 86.0909 576.915 86.1818 576.324 86.1818ZM583.932 76.0909L585.318 73.4545H586.886L585.114 76.0909H583.932ZM593.726 77.2727V78.4091H589.203V77.2727H593.726ZM590.521 75.1818H591.862V83.5C591.862 83.8788 591.917 84.1629 592.027 84.3523C592.141 84.5379 592.285 84.6629 592.459 84.7273C592.637 84.7879 592.824 84.8182 593.021 84.8182C593.169 84.8182 593.29 84.8106 593.385 84.7955C593.48 84.7765 593.555 84.7614 593.612 84.75L593.885 85.9545C593.794 85.9886 593.667 86.0227 593.504 86.0568C593.341 86.0947 593.135 86.1136 592.885 86.1136C592.506 86.1136 592.135 86.0322 591.771 85.8693C591.411 85.7064 591.112 85.4583 590.874 85.125C590.639 84.7917 590.521 84.3712 590.521 83.8636V75.1818ZM601.243 82.4318V77.2727H602.584V86H601.243V84.5227H601.152C600.947 84.9659 600.629 85.3428 600.197 85.6534C599.766 85.9602 599.22 86.1136 598.561 86.1136C598.016 86.1136 597.531 85.9943 597.107 85.7557C596.682 85.5133 596.349 85.1496 596.107 84.6648C595.864 84.1761 595.743 83.5606 595.743 82.8182V77.2727H597.084V82.7273C597.084 83.3636 597.262 83.8712 597.618 84.25C597.978 84.6288 598.436 84.8182 598.993 84.8182C599.326 84.8182 599.665 84.733 600.01 84.5625C600.358 84.392 600.65 84.1307 600.885 83.7784C601.124 83.4261 601.243 82.9773 601.243 82.4318ZM605.04 86V77.2727H606.335V78.5909H606.426C606.581 78.1591 606.867 77.8087 607.284 77.5398C607.701 77.2708 608.172 77.1364 608.699 77.1364C608.941 77.1364 609.153 77.1648 609.335 77.2216C609.517 77.2784 609.676 77.3561 609.812 77.4545L609.358 78.5909C609.263 78.5417 609.152 78.5038 609.023 78.4773C608.898 78.447 608.752 78.4318 608.585 78.4318C608.161 78.4318 607.782 78.5208 607.449 78.6989C607.119 78.8769 606.858 79.1193 606.665 79.4261C606.475 79.733 606.381 80.0833 606.381 80.4773V86H605.04ZM612.521 80.75V86H611.18V77.2727H612.476V78.6364H612.589C612.794 78.1932 613.105 77.8371 613.521 77.5682C613.938 77.2955 614.476 77.1591 615.135 77.1591C615.726 77.1591 616.243 77.2803 616.686 77.5227C617.129 77.7614 617.474 78.125 617.72 78.6136C617.966 79.0985 618.089 79.7121 618.089 80.4545V86H616.749V80.5455C616.749 79.8598 616.571 79.3258 616.214 78.9432C615.858 78.5568 615.37 78.3636 614.749 78.3636C614.321 78.3636 613.938 78.4564 613.601 78.642C613.268 78.8277 613.004 79.0985 612.811 79.4545C612.618 79.8106 612.521 80.2424 612.521 80.75ZM625.04 86V77.2727H626.381V86H625.04ZM625.722 75.8182C625.46 75.8182 625.235 75.7292 625.045 75.5511C624.86 75.3731 624.767 75.1591 624.767 74.9091C624.767 74.6591 624.86 74.4451 625.045 74.267C625.235 74.089 625.46 74 625.722 74C625.983 74 626.206 74.089 626.392 74.267C626.581 74.4451 626.676 74.6591 626.676 74.9091C626.676 75.1591 626.581 75.3731 626.392 75.5511C626.206 75.7292 625.983 75.8182 625.722 75.8182ZM632.632 77.2727V78.4091H628.109V77.2727H632.632ZM629.428 75.1818H630.768V83.5C630.768 83.8788 630.823 84.1629 630.933 84.3523C631.047 84.5379 631.191 84.6629 631.365 84.7273C631.543 84.7879 631.731 84.8182 631.928 84.8182C632.075 84.8182 632.196 84.8106 632.291 84.7955C632.386 84.7765 632.462 84.7614 632.518 84.75L632.791 85.9545C632.7 85.9886 632.573 86.0227 632.411 86.0568C632.248 86.0947 632.041 86.1136 631.791 86.1136C631.412 86.1136 631.041 86.0322 630.678 85.8693C630.318 85.7064 630.018 85.4583 629.78 85.125C629.545 84.7917 629.428 84.3712 629.428 83.8636V75.1818ZM639.149 86V77.2727H640.49V86H639.149ZM639.831 75.8182C639.57 75.8182 639.344 75.7292 639.155 75.5511C638.969 75.3731 638.876 75.1591 638.876 74.9091C638.876 74.6591 638.969 74.4451 639.155 74.267C639.344 74.089 639.57 74 639.831 74C640.092 74 640.316 74.089 640.501 74.267C640.691 74.4451 640.786 74.6591 640.786 74.9091C640.786 75.1591 640.691 75.3731 640.501 75.5511C640.316 75.7292 640.092 75.8182 639.831 75.8182ZM644.287 80.75V86H642.946V77.2727H644.241V78.6364H644.355C644.56 78.1932 644.87 77.8371 645.287 77.5682C645.704 77.2955 646.241 77.1591 646.901 77.1591C647.491 77.1591 648.009 77.2803 648.452 77.5227C648.895 77.7614 649.24 78.125 649.486 78.6136C649.732 79.0985 649.855 79.7121 649.855 80.4545V86H648.514V80.5455C648.514 79.8598 648.336 79.3258 647.98 78.9432C647.624 78.5568 647.135 78.3636 646.514 78.3636C646.086 78.3636 645.704 78.4564 645.366 78.642C645.033 78.8277 644.77 79.0985 644.577 79.4545C644.384 79.8106 644.287 80.2424 644.287 80.75ZM656.101 77.2727V78.4091H651.578V77.2727H656.101ZM652.896 75.1818H654.237V83.5C654.237 83.8788 654.292 84.1629 654.402 84.3523C654.516 84.5379 654.66 84.6629 654.834 84.7273C655.012 84.7879 655.199 84.8182 655.396 84.8182C655.544 84.8182 655.665 84.8106 655.76 84.7955C655.855 84.7765 655.93 84.7614 655.987 84.75L656.26 85.9545C656.169 85.9886 656.042 86.0227 655.879 86.0568C655.716 86.0947 655.51 86.1136 655.26 86.1136C654.881 86.1136 654.51 86.0322 654.146 85.8693C653.786 85.7064 653.487 85.4583 653.249 85.125C653.014 84.7917 652.896 84.3712 652.896 83.8636V75.1818ZM661.57 86.1818C660.782 86.1818 660.09 85.9943 659.496 85.6193C658.905 85.2443 658.443 84.7197 658.109 84.0455C657.78 83.3712 657.615 82.5833 657.615 81.6818C657.615 80.7727 657.78 79.9792 658.109 79.3011C658.443 78.6231 658.905 78.0966 659.496 77.7216C660.09 77.3466 660.782 77.1591 661.57 77.1591C662.357 77.1591 663.047 77.3466 663.638 77.7216C664.232 78.0966 664.695 78.6231 665.024 79.3011C665.357 79.9792 665.524 80.7727 665.524 81.6818C665.524 82.5833 665.357 83.3712 665.024 84.0455C664.695 84.7197 664.232 85.2443 663.638 85.6193C663.047 85.9943 662.357 86.1818 661.57 86.1818ZM661.57 84.9773C662.168 84.9773 662.661 84.8239 663.047 84.517C663.433 84.2102 663.719 83.8068 663.905 83.3068C664.09 82.8068 664.183 82.2652 664.183 81.6818C664.183 81.0985 664.09 80.5549 663.905 80.0511C663.719 79.5473 663.433 79.1402 663.047 78.8295C662.661 78.5189 662.168 78.3636 661.57 78.3636C660.971 78.3636 660.479 78.5189 660.092 78.8295C659.706 79.1402 659.42 79.5473 659.234 80.0511C659.049 80.5549 658.956 81.0985 658.956 81.6818C658.956 82.2652 659.049 82.8068 659.234 83.3068C659.42 83.8068 659.706 84.2102 660.092 84.517C660.479 84.8239 660.971 84.9773 661.57 84.9773ZM675.366 86.1818C674.639 86.1818 673.997 85.9981 673.44 85.6307C672.884 85.2595 672.448 84.7367 672.134 84.0625C671.819 83.3845 671.662 82.5833 671.662 81.6591C671.662 80.7424 671.819 79.947 672.134 79.2727C672.448 78.5985 672.885 78.0777 673.446 77.7102C674.007 77.3428 674.654 77.1591 675.389 77.1591C675.957 77.1591 676.406 77.2538 676.736 77.4432C677.069 77.6288 677.323 77.8409 677.497 78.0795C677.675 78.3144 677.813 78.5076 677.912 78.6591H678.026V77.2727H679.366V86H678.071V84.6591H677.912C677.813 84.8182 677.673 85.0189 677.491 85.2614C677.31 85.5 677.05 85.714 676.713 85.9034C676.376 86.089 675.927 86.1818 675.366 86.1818ZM675.548 84.9773C676.086 84.9773 676.541 84.8371 676.912 84.5568C677.283 84.2727 677.565 83.8807 677.759 83.3807C677.952 82.8769 678.048 82.2955 678.048 81.6364C678.048 80.9848 677.954 80.4148 677.764 79.9261C677.575 79.4337 677.295 79.0511 676.923 78.7784C676.552 78.5019 676.094 78.3636 675.548 78.3636C674.98 78.3636 674.507 78.5095 674.128 78.8011C673.753 79.089 673.471 79.4811 673.281 79.9773C673.096 80.4697 673.003 81.0227 673.003 81.6364C673.003 82.2576 673.098 82.822 673.287 83.3295C673.48 83.8333 673.764 84.2348 674.139 84.5341C674.518 84.8295 674.988 84.9773 675.548 84.9773ZM690.304 77.2727V78.4091H685.781V77.2727H690.304ZM687.099 75.1818H688.44V83.5C688.44 83.8788 688.495 84.1629 688.605 84.3523C688.719 84.5379 688.863 84.6629 689.037 84.7273C689.215 84.7879 689.402 84.8182 689.599 84.8182C689.747 84.8182 689.868 84.8106 689.963 84.7955C690.058 84.7765 690.134 84.7614 690.19 84.75L690.463 85.9545C690.372 85.9886 690.245 86.0227 690.082 86.0568C689.92 86.0947 689.713 86.1136 689.463 86.1136C689.084 86.1136 688.713 86.0322 688.349 85.8693C687.99 85.7064 687.69 85.4583 687.452 85.125C687.217 84.7917 687.099 84.3712 687.099 83.8636V75.1818ZM692.321 86V77.2727H693.616V78.5909H693.707C693.863 78.1591 694.149 77.8087 694.565 77.5398C694.982 77.2708 695.454 77.1364 695.98 77.1364C696.223 77.1364 696.435 77.1648 696.616 77.2216C696.798 77.2784 696.957 77.3561 697.094 77.4545L696.639 78.5909C696.545 78.5417 696.433 78.5038 696.304 78.4773C696.179 78.447 696.033 78.4318 695.866 78.4318C695.442 78.4318 695.063 78.5208 694.73 78.6989C694.401 78.8769 694.139 79.1193 693.946 79.4261C693.757 79.733 693.662 80.0833 693.662 80.4773V86H692.321ZM701.491 86.1818C700.764 86.1818 700.122 85.9981 699.565 85.6307C699.009 85.2595 698.573 84.7367 698.259 84.0625C697.944 83.3845 697.787 82.5833 697.787 81.6591C697.787 80.7424 697.944 79.947 698.259 79.2727C698.573 78.5985 699.01 78.0777 699.571 77.7102C700.132 77.3428 700.779 77.1591 701.514 77.1591C702.082 77.1591 702.531 77.2538 702.861 77.4432C703.194 77.6288 703.448 77.8409 703.622 78.0795C703.8 78.3144 703.938 78.5076 704.037 78.6591H704.151V77.2727H705.491V86H704.196V84.6591H704.037C703.938 84.8182 703.798 85.0189 703.616 85.2614C703.435 85.5 703.175 85.714 702.838 85.9034C702.501 86.089 702.052 86.1818 701.491 86.1818ZM701.673 84.9773C702.211 84.9773 702.666 84.8371 703.037 84.5568C703.408 84.2727 703.69 83.8807 703.884 83.3807C704.077 82.8769 704.173 82.2955 704.173 81.6364C704.173 80.9848 704.079 80.4148 703.889 79.9261C703.7 79.4337 703.42 79.0511 703.048 78.7784C702.677 78.5019 702.219 78.3636 701.673 78.3636C701.105 78.3636 700.632 78.5095 700.253 78.8011C699.878 79.089 699.596 79.4811 699.406 79.9773C699.221 80.4697 699.128 81.0227 699.128 81.6364C699.128 82.2576 699.223 82.822 699.412 83.3295C699.605 83.8333 699.889 84.2348 700.264 84.5341C700.643 84.8295 701.113 84.9773 701.673 84.9773ZM709.474 80.75V86H708.134V77.2727H709.429V78.6364H709.543C709.747 78.1932 710.058 77.8371 710.474 77.5682C710.891 77.2955 711.429 77.1591 712.088 77.1591C712.679 77.1591 713.196 77.2803 713.639 77.5227C714.082 77.7614 714.427 78.125 714.673 78.6136C714.92 79.0985 715.043 79.7121 715.043 80.4545V86H713.702V80.5455C713.702 79.8598 713.524 79.3258 713.168 78.9432C712.812 78.5568 712.323 78.3636 711.702 78.3636C711.274 78.3636 710.891 78.4564 710.554 78.642C710.221 78.8277 709.957 79.0985 709.764 79.4545C709.571 79.8106 709.474 80.2424 709.474 80.75ZM723.675 79.2273L722.47 79.5682C722.394 79.3674 722.283 79.1723 722.135 78.983C721.991 78.7898 721.794 78.6307 721.544 78.5057C721.294 78.3807 720.974 78.3182 720.584 78.3182C720.05 78.3182 719.605 78.4413 719.249 78.6875C718.896 78.9299 718.72 79.2386 718.72 79.6136C718.72 79.947 718.841 80.2102 719.084 80.4034C719.326 80.5966 719.705 80.7576 720.22 80.8864L721.516 81.2045C722.296 81.3939 722.877 81.6837 723.26 82.0739C723.643 82.4602 723.834 82.9583 723.834 83.5682C723.834 84.0682 723.69 84.5152 723.402 84.9091C723.118 85.303 722.72 85.6136 722.209 85.8409C721.697 86.0682 721.103 86.1818 720.425 86.1818C719.535 86.1818 718.798 85.9886 718.214 85.6023C717.631 85.2159 717.262 84.6515 717.107 83.9091L718.379 83.5909C718.5 84.0606 718.73 84.4129 719.067 84.6477C719.408 84.8826 719.853 85 720.402 85C721.027 85 721.523 84.8674 721.891 84.6023C722.262 84.3333 722.447 84.0114 722.447 83.6364C722.447 83.3333 722.341 83.0795 722.129 82.875C721.917 82.6667 721.591 82.5114 721.152 82.4091L719.697 82.0682C718.898 81.8788 718.311 81.5852 717.936 81.1875C717.565 80.786 717.379 80.2841 717.379 79.6818C717.379 79.1894 717.518 78.7538 717.794 78.375C718.074 77.9962 718.455 77.6989 718.936 77.483C719.421 77.267 719.97 77.1591 720.584 77.1591C721.447 77.1591 722.125 77.3485 722.618 77.7273C723.114 78.1061 723.466 78.6061 723.675 79.2273ZM729.398 86.1818C728.58 86.1818 727.875 85.9886 727.284 85.6023C726.693 85.2159 726.239 84.6837 725.92 84.0057C725.602 83.3277 725.443 82.553 725.443 81.6818C725.443 80.7955 725.606 80.0133 725.932 79.3352C726.261 78.6534 726.72 78.1212 727.307 77.7386C727.898 77.3523 728.587 77.1591 729.375 77.1591C729.989 77.1591 730.542 77.2727 731.034 77.5C731.527 77.7273 731.93 78.0455 732.244 78.4545C732.559 78.8636 732.754 79.3409 732.83 79.8864H731.489C731.386 79.4886 731.159 79.1364 730.807 78.8295C730.458 78.5189 729.989 78.3636 729.398 78.3636C728.875 78.3636 728.417 78.5 728.023 78.7727C727.633 79.0417 727.328 79.4223 727.108 79.9148C726.892 80.4034 726.784 80.9773 726.784 81.6364C726.784 82.3106 726.89 82.8977 727.102 83.3977C727.318 83.8977 727.621 84.286 728.011 84.5625C728.405 84.839 728.867 84.9773 729.398 84.9773C729.746 84.9773 730.062 84.9167 730.347 84.7955C730.631 84.6742 730.871 84.5 731.068 84.2727C731.265 84.0455 731.405 83.7727 731.489 83.4545H732.83C732.754 83.9697 732.566 84.4337 732.267 84.8466C731.972 85.2557 731.58 85.5814 731.091 85.8239C730.606 86.0625 730.042 86.1818 729.398 86.1818ZM734.79 86V77.2727H736.085V78.5909H736.176C736.331 78.1591 736.617 77.8087 737.034 77.5398C737.451 77.2708 737.922 77.1364 738.449 77.1364C738.691 77.1364 738.903 77.1648 739.085 77.2216C739.267 77.2784 739.426 77.3561 739.562 77.4545L739.108 78.5909C739.013 78.5417 738.902 78.5038 738.773 78.4773C738.648 78.447 738.502 78.4318 738.335 78.4318C737.911 78.4318 737.532 78.5208 737.199 78.6989C736.869 78.8769 736.608 79.1193 736.415 79.4261C736.225 79.733 736.131 80.0833 736.131 80.4773V86H734.79ZM740.93 86V77.2727H742.271V86H740.93ZM741.612 75.8182C741.351 75.8182 741.125 75.7292 740.936 75.5511C740.75 75.3731 740.658 75.1591 740.658 74.9091C740.658 74.6591 740.75 74.4451 740.936 74.267C741.125 74.089 741.351 74 741.612 74C741.874 74 742.097 74.089 742.283 74.267C742.472 74.4451 742.567 74.6591 742.567 74.9091C742.567 75.1591 742.472 75.3731 742.283 75.5511C742.097 75.7292 741.874 75.8182 741.612 75.8182ZM744.727 89.2727V77.2727H746.023V78.6591H746.182C746.28 78.5076 746.417 78.3144 746.591 78.0795C746.769 77.8409 747.023 77.6288 747.352 77.4432C747.686 77.2538 748.136 77.1591 748.705 77.1591C749.439 77.1591 750.087 77.3428 750.648 77.7102C751.208 78.0777 751.646 78.5985 751.96 79.2727C752.275 79.947 752.432 80.7424 752.432 81.6591C752.432 82.5833 752.275 83.3845 751.96 84.0625C751.646 84.7367 751.21 85.2595 750.653 85.6307C750.097 85.9981 749.455 86.1818 748.727 86.1818C748.167 86.1818 747.718 86.089 747.381 85.9034C747.044 85.714 746.784 85.5 746.602 85.2614C746.42 85.0189 746.28 84.8182 746.182 84.6591H746.068V89.2727H744.727ZM746.045 81.6364C746.045 82.2955 746.142 82.8769 746.335 83.3807C746.528 83.8807 746.811 84.2727 747.182 84.5568C747.553 84.8371 748.008 84.9773 748.545 84.9773C749.106 84.9773 749.574 84.8295 749.949 84.5341C750.328 84.2348 750.612 83.8333 750.801 83.3295C750.994 82.822 751.091 82.2576 751.091 81.6364C751.091 81.0227 750.996 80.4697 750.807 79.9773C750.621 79.4811 750.339 79.089 749.96 78.8011C749.585 78.5095 749.114 78.3636 748.545 78.3636C748 78.3636 747.542 78.5019 747.17 78.7784C746.799 79.0511 746.519 79.4337 746.33 79.9261C746.14 80.4148 746.045 80.9848 746.045 81.6364ZM758.273 77.2727V78.4091H753.75V77.2727H758.273ZM755.068 75.1818H756.409V83.5C756.409 83.8788 756.464 84.1629 756.574 84.3523C756.688 84.5379 756.831 84.6629 757.006 84.7273C757.184 84.7879 757.371 84.8182 757.568 84.8182C757.716 84.8182 757.837 84.8106 757.932 84.7955C758.027 84.7765 758.102 84.7614 758.159 84.75L758.432 85.9545C758.341 85.9886 758.214 86.0227 758.051 86.0568C757.888 86.0947 757.682 86.1136 757.432 86.1136C757.053 86.1136 756.682 86.0322 756.318 85.8693C755.958 85.7064 755.659 85.4583 755.42 85.125C755.186 84.7917 755.068 84.3712 755.068 83.8636V75.1818ZM768.085 86.1818C767.358 86.1818 766.716 85.9981 766.159 85.6307C765.602 85.2595 765.167 84.7367 764.852 84.0625C764.538 83.3845 764.381 82.5833 764.381 81.6591C764.381 80.7424 764.538 79.947 764.852 79.2727C765.167 78.5985 765.604 78.0777 766.165 77.7102C766.725 77.3428 767.373 77.1591 768.108 77.1591C768.676 77.1591 769.125 77.2538 769.455 77.4432C769.788 77.6288 770.042 77.8409 770.216 78.0795C770.394 78.3144 770.532 78.5076 770.631 78.6591H770.744V77.2727H772.085V86H770.79V84.6591H770.631C770.532 84.8182 770.392 85.0189 770.21 85.2614C770.028 85.5 769.769 85.714 769.432 85.9034C769.095 86.089 768.646 86.1818 768.085 86.1818ZM768.267 84.9773C768.805 84.9773 769.259 84.8371 769.631 84.5568C770.002 84.2727 770.284 83.8807 770.477 83.3807C770.67 82.8769 770.767 82.2955 770.767 81.6364C770.767 80.9848 770.672 80.4148 770.483 79.9261C770.294 79.4337 770.013 79.0511 769.642 78.7784C769.271 78.5019 768.813 78.3636 768.267 78.3636C767.699 78.3636 767.225 78.5095 766.847 78.8011C766.472 79.089 766.189 79.4811 766 79.9773C765.814 80.4697 765.722 81.0227 765.722 81.6364C765.722 82.2576 765.816 82.822 766.006 83.3295C766.199 83.8333 766.483 84.2348 766.858 84.5341C767.237 84.8295 767.706 84.9773 768.267 84.9773ZM776.068 80.75V86H774.727V77.2727H776.023V78.6364H776.136C776.341 78.1932 776.652 77.8371 777.068 77.5682C777.485 77.2955 778.023 77.1591 778.682 77.1591C779.273 77.1591 779.79 77.2803 780.233 77.5227C780.676 77.7614 781.021 78.125 781.267 78.6136C781.513 79.0985 781.636 79.7121 781.636 80.4545V86H780.295V80.5455C780.295 79.8598 780.117 79.3258 779.761 78.9432C779.405 78.5568 778.917 78.3636 778.295 78.3636C777.867 78.3636 777.485 78.4564 777.148 78.642C776.814 78.8277 776.551 79.0985 776.358 79.4545C776.165 79.8106 776.068 80.2424 776.068 80.75ZM787.382 86.1818C786.655 86.1818 786.013 85.9981 785.456 85.6307C784.899 85.2595 784.464 84.7367 784.149 84.0625C783.835 83.3845 783.678 82.5833 783.678 81.6591C783.678 80.7424 783.835 79.947 784.149 79.2727C784.464 78.5985 784.901 78.0777 785.462 77.7102C786.022 77.3428 786.67 77.1591 787.405 77.1591C787.973 77.1591 788.422 77.2538 788.751 77.4432C789.085 77.6288 789.339 77.8409 789.513 78.0795C789.691 78.3144 789.829 78.5076 789.928 78.6591H790.041V74.3636H791.382V86H790.087V84.6591H789.928C789.829 84.8182 789.689 85.0189 789.507 85.2614C789.325 85.5 789.066 85.714 788.729 85.9034C788.392 86.089 787.943 86.1818 787.382 86.1818ZM787.564 84.9773C788.102 84.9773 788.556 84.8371 788.928 84.5568C789.299 84.2727 789.581 83.8807 789.774 83.3807C789.967 82.8769 790.064 82.2955 790.064 81.6364C790.064 80.9848 789.969 80.4148 789.78 79.9261C789.59 79.4337 789.31 79.0511 788.939 78.7784C788.568 78.5019 788.109 78.3636 787.564 78.3636C786.996 78.3636 786.522 78.5095 786.143 78.8011C785.768 79.089 785.486 79.4811 785.297 79.9773C785.111 80.4697 785.018 81.0227 785.018 81.6364C785.018 82.2576 785.113 82.822 785.303 83.3295C785.496 83.8333 785.78 84.2348 786.155 84.5341C786.534 84.8295 787.003 84.9773 787.564 84.9773ZM799.865 80.75V86H798.524V74.3636H799.865V78.6364H799.979C800.183 78.1856 800.49 77.8277 800.899 77.5625C801.312 77.2936 801.861 77.1591 802.547 77.1591C803.142 77.1591 803.662 77.2784 804.109 77.517C804.556 77.7519 804.903 78.1136 805.149 78.6023C805.399 79.0871 805.524 79.7045 805.524 80.4545V86H804.183V80.5455C804.183 79.8523 804.003 79.3163 803.643 78.9375C803.287 78.5549 802.793 78.3636 802.161 78.3636C801.721 78.3636 801.327 78.4564 800.979 78.642C800.634 78.8277 800.361 79.0985 800.161 79.4545C799.964 79.8106 799.865 80.2424 799.865 80.75ZM807.977 86V77.2727H809.318V86H807.977ZM808.659 75.8182C808.398 75.8182 808.172 75.7292 807.983 75.5511C807.797 75.3731 807.705 75.1591 807.705 74.9091C807.705 74.6591 807.797 74.4451 807.983 74.267C808.172 74.089 808.398 74 808.659 74C808.92 74 809.144 74.089 809.33 74.267C809.519 74.4451 809.614 74.6591 809.614 74.9091C809.614 75.1591 809.519 75.3731 809.33 75.5511C809.144 75.7292 808.92 75.8182 808.659 75.8182ZM815.297 89.4545C814.649 89.4545 814.092 89.3712 813.626 89.2045C813.161 89.0417 812.772 88.8258 812.462 88.5568C812.155 88.2917 811.911 88.0076 811.729 87.7045L812.797 86.9545C812.918 87.1136 813.071 87.2955 813.257 87.5C813.443 87.7083 813.696 87.8883 814.018 88.0398C814.344 88.1951 814.77 88.2727 815.297 88.2727C816.001 88.2727 816.583 88.1023 817.041 87.7614C817.5 87.4205 817.729 86.8864 817.729 86.1591V84.3864H817.615C817.517 84.5455 817.376 84.7424 817.195 84.9773C817.017 85.2083 816.759 85.4148 816.422 85.5966C816.089 85.7746 815.638 85.8636 815.07 85.8636C814.365 85.8636 813.732 85.697 813.172 85.3636C812.615 85.0303 812.174 84.5455 811.848 83.9091C811.526 83.2727 811.365 82.5 811.365 81.5909C811.365 80.697 811.522 79.9186 811.837 79.2557C812.151 78.589 812.589 78.0739 813.149 77.7102C813.71 77.3428 814.357 77.1591 815.092 77.1591C815.661 77.1591 816.111 77.2538 816.445 77.4432C816.782 77.6288 817.039 77.8409 817.217 78.0795C817.399 78.3144 817.539 78.5076 817.638 78.6591H817.774V77.2727H819.07V86.25C819.07 87 818.899 87.6098 818.558 88.0795C818.221 88.553 817.767 88.8996 817.195 89.1193C816.626 89.3428 815.994 89.4545 815.297 89.4545ZM815.251 84.6591C815.789 84.6591 816.244 84.536 816.615 84.2898C816.986 84.0436 817.268 83.6894 817.462 83.2273C817.655 82.7652 817.751 82.2121 817.751 81.5682C817.751 80.9394 817.657 80.3845 817.467 79.9034C817.278 79.4223 816.998 79.0455 816.626 78.7727C816.255 78.5 815.797 78.3636 815.251 78.3636C814.683 78.3636 814.21 78.5076 813.831 78.7955C813.456 79.0833 813.174 79.4697 812.984 79.9545C812.799 80.4394 812.706 80.9773 812.706 81.5682C812.706 82.1742 812.801 82.7102 812.99 83.1761C813.183 83.6383 813.467 84.0019 813.842 84.267C814.221 84.5284 814.691 84.6591 815.251 84.6591ZM822.865 80.75V86H821.524V74.3636H822.865V78.6364H822.979C823.183 78.1856 823.49 77.8277 823.899 77.5625C824.312 77.2936 824.861 77.1591 825.547 77.1591C826.142 77.1591 826.662 77.2784 827.109 77.517C827.556 77.7519 827.903 78.1136 828.149 78.6023C828.399 79.0871 828.524 79.7045 828.524 80.4545V86H827.183V80.5455C827.183 79.8523 827.003 79.3163 826.643 78.9375C826.287 78.5549 825.793 78.3636 825.161 78.3636C824.721 78.3636 824.327 78.4564 823.979 78.642C823.634 78.8277 823.361 79.0985 823.161 79.4545C822.964 79.8106 822.865 80.2424 822.865 80.75ZM832.318 74.3636V86H830.977V74.3636H832.318ZM834.774 86V77.2727H836.115V86H834.774ZM835.456 75.8182C835.195 75.8182 834.969 75.7292 834.78 75.5511C834.594 75.3731 834.501 75.1591 834.501 74.9091C834.501 74.6591 834.594 74.4451 834.78 74.267C834.969 74.089 835.195 74 835.456 74C835.717 74 835.941 74.089 836.126 74.267C836.316 74.4451 836.411 74.6591 836.411 74.9091C836.411 75.1591 836.316 75.3731 836.126 75.5511C835.941 75.7292 835.717 75.8182 835.456 75.8182ZM842.094 89.4545C841.446 89.4545 840.889 89.3712 840.423 89.2045C839.957 89.0417 839.569 88.8258 839.259 88.5568C838.952 88.2917 838.707 88.0076 838.526 87.7045L839.594 86.9545C839.715 87.1136 839.868 87.2955 840.054 87.5C840.24 87.7083 840.493 87.8883 840.815 88.0398C841.141 88.1951 841.567 88.2727 842.094 88.2727C842.798 88.2727 843.38 88.1023 843.838 87.7614C844.296 87.4205 844.526 86.8864 844.526 86.1591V84.3864H844.412C844.313 84.5455 844.173 84.7424 843.991 84.9773C843.813 85.2083 843.556 85.4148 843.219 85.5966C842.885 85.7746 842.435 85.8636 841.866 85.8636C841.162 85.8636 840.529 85.697 839.969 85.3636C839.412 85.0303 838.971 84.5455 838.645 83.9091C838.323 83.2727 838.162 82.5 838.162 81.5909C838.162 80.697 838.319 79.9186 838.634 79.2557C838.948 78.589 839.385 78.0739 839.946 77.7102C840.507 77.3428 841.154 77.1591 841.889 77.1591C842.457 77.1591 842.908 77.2538 843.241 77.4432C843.579 77.6288 843.836 77.8409 844.014 78.0795C844.196 78.3144 844.336 78.5076 844.435 78.6591H844.571V77.2727H845.866V86.25C845.866 87 845.696 87.6098 845.355 88.0795C845.018 88.553 844.563 88.8996 843.991 89.1193C843.423 89.3428 842.791 89.4545 842.094 89.4545ZM842.048 84.6591C842.586 84.6591 843.041 84.536 843.412 84.2898C843.783 84.0436 844.065 83.6894 844.259 83.2273C844.452 82.7652 844.548 82.2121 844.548 81.5682C844.548 80.9394 844.454 80.3845 844.264 79.9034C844.075 79.4223 843.795 79.0455 843.423 78.7727C843.052 78.5 842.594 78.3636 842.048 78.3636C841.48 78.3636 841.007 78.5076 840.628 78.7955C840.253 79.0833 839.971 79.4697 839.781 79.9545C839.596 80.4394 839.503 80.9773 839.503 81.5682C839.503 82.1742 839.598 82.7102 839.787 83.1761C839.98 83.6383 840.264 84.0019 840.639 84.267C841.018 84.5284 841.488 84.6591 842.048 84.6591ZM849.662 80.75V86H848.321V74.3636H849.662V78.6364H849.776C849.98 78.1856 850.287 77.8277 850.696 77.5625C851.109 77.2936 851.658 77.1591 852.344 77.1591C852.938 77.1591 853.459 77.2784 853.906 77.517C854.353 77.7519 854.7 78.1136 854.946 78.6023C855.196 79.0871 855.321 79.7045 855.321 80.4545V86H853.98V80.5455C853.98 79.8523 853.8 79.3163 853.44 78.9375C853.084 78.5549 852.59 78.3636 851.957 78.3636C851.518 78.3636 851.124 78.4564 850.776 78.642C850.431 78.8277 850.158 79.0985 849.957 79.4545C849.76 79.8106 849.662 80.2424 849.662 80.75ZM861.57 77.2727V78.4091H857.047V77.2727H861.57ZM858.365 75.1818H859.706V83.5C859.706 83.8788 859.761 84.1629 859.871 84.3523C859.984 84.5379 860.128 84.6629 860.303 84.7273C860.481 84.7879 860.668 84.8182 860.865 84.8182C861.013 84.8182 861.134 84.8106 861.229 84.7955C861.323 84.7765 861.399 84.7614 861.456 84.75L861.729 85.9545C861.638 85.9886 861.511 86.0227 861.348 86.0568C861.185 86.0947 860.979 86.1136 860.729 86.1136C860.35 86.1136 859.979 86.0322 859.615 85.8693C859.255 85.7064 858.956 85.4583 858.717 85.125C858.482 84.7917 858.365 84.3712 858.365 83.8636V75.1818ZM387.909 103.227L386.705 103.568C386.629 103.367 386.517 103.172 386.369 102.983C386.225 102.79 386.028 102.631 385.778 102.506C385.528 102.381 385.208 102.318 384.818 102.318C384.284 102.318 383.839 102.441 383.483 102.688C383.131 102.93 382.955 103.239 382.955 103.614C382.955 103.947 383.076 104.21 383.318 104.403C383.561 104.597 383.939 104.758 384.455 104.886L385.75 105.205C386.53 105.394 387.112 105.684 387.494 106.074C387.877 106.46 388.068 106.958 388.068 107.568C388.068 108.068 387.924 108.515 387.636 108.909C387.352 109.303 386.955 109.614 386.443 109.841C385.932 110.068 385.337 110.182 384.659 110.182C383.769 110.182 383.032 109.989 382.449 109.602C381.866 109.216 381.496 108.652 381.341 107.909L382.614 107.591C382.735 108.061 382.964 108.413 383.301 108.648C383.642 108.883 384.087 109 384.636 109C385.261 109 385.758 108.867 386.125 108.602C386.496 108.333 386.682 108.011 386.682 107.636C386.682 107.333 386.576 107.08 386.364 106.875C386.152 106.667 385.826 106.511 385.386 106.409L383.932 106.068C383.133 105.879 382.545 105.585 382.17 105.188C381.799 104.786 381.614 104.284 381.614 103.682C381.614 103.189 381.752 102.754 382.028 102.375C382.309 101.996 382.689 101.699 383.17 101.483C383.655 101.267 384.205 101.159 384.818 101.159C385.682 101.159 386.36 101.348 386.852 101.727C387.348 102.106 387.701 102.606 387.909 103.227ZM395.587 106.432V101.273H396.928V110H395.587V108.523H395.496C395.291 108.966 394.973 109.343 394.541 109.653C394.109 109.96 393.564 110.114 392.905 110.114C392.359 110.114 391.875 109.994 391.45 109.756C391.026 109.513 390.693 109.15 390.45 108.665C390.208 108.176 390.087 107.561 390.087 106.818V101.273H391.428V106.727C391.428 107.364 391.606 107.871 391.962 108.25C392.321 108.629 392.78 108.818 393.337 108.818C393.67 108.818 394.009 108.733 394.354 108.562C394.702 108.392 394.994 108.131 395.229 107.778C395.467 107.426 395.587 106.977 395.587 106.432ZM402.906 113.455C402.259 113.455 401.702 113.371 401.236 113.205C400.77 113.042 400.382 112.826 400.071 112.557C399.764 112.292 399.52 112.008 399.338 111.705L400.406 110.955C400.527 111.114 400.681 111.295 400.866 111.5C401.052 111.708 401.306 111.888 401.628 112.04C401.954 112.195 402.38 112.273 402.906 112.273C403.611 112.273 404.192 112.102 404.651 111.761C405.109 111.42 405.338 110.886 405.338 110.159V108.386H405.224C405.126 108.545 404.986 108.742 404.804 108.977C404.626 109.208 404.368 109.415 404.031 109.597C403.698 109.775 403.247 109.864 402.679 109.864C401.974 109.864 401.342 109.697 400.781 109.364C400.224 109.03 399.783 108.545 399.457 107.909C399.135 107.273 398.974 106.5 398.974 105.591C398.974 104.697 399.132 103.919 399.446 103.256C399.76 102.589 400.198 102.074 400.759 101.71C401.319 101.343 401.967 101.159 402.702 101.159C403.27 101.159 403.721 101.254 404.054 101.443C404.391 101.629 404.649 101.841 404.827 102.08C405.009 102.314 405.149 102.508 405.247 102.659H405.384V101.273H406.679V110.25C406.679 111 406.509 111.61 406.168 112.08C405.83 112.553 405.376 112.9 404.804 113.119C404.236 113.343 403.603 113.455 402.906 113.455ZM402.861 108.659C403.399 108.659 403.853 108.536 404.224 108.29C404.596 108.044 404.878 107.689 405.071 107.227C405.264 106.765 405.361 106.212 405.361 105.568C405.361 104.939 405.266 104.384 405.077 103.903C404.887 103.422 404.607 103.045 404.236 102.773C403.865 102.5 403.406 102.364 402.861 102.364C402.293 102.364 401.819 102.508 401.44 102.795C401.065 103.083 400.783 103.47 400.594 103.955C400.408 104.439 400.315 104.977 400.315 105.568C400.315 106.174 400.41 106.71 400.599 107.176C400.793 107.638 401.077 108.002 401.452 108.267C401.83 108.528 402.3 108.659 402.861 108.659ZM412.656 113.455C412.009 113.455 411.452 113.371 410.986 113.205C410.52 113.042 410.132 112.826 409.821 112.557C409.514 112.292 409.27 112.008 409.088 111.705L410.156 110.955C410.277 111.114 410.431 111.295 410.616 111.5C410.802 111.708 411.056 111.888 411.378 112.04C411.704 112.195 412.13 112.273 412.656 112.273C413.361 112.273 413.942 112.102 414.401 111.761C414.859 111.42 415.088 110.886 415.088 110.159V108.386H414.974C414.876 108.545 414.736 108.742 414.554 108.977C414.376 109.208 414.118 109.415 413.781 109.597C413.448 109.775 412.997 109.864 412.429 109.864C411.724 109.864 411.092 109.697 410.531 109.364C409.974 109.03 409.533 108.545 409.207 107.909C408.885 107.273 408.724 106.5 408.724 105.591C408.724 104.697 408.882 103.919 409.196 103.256C409.51 102.589 409.948 102.074 410.509 101.71C411.069 101.343 411.717 101.159 412.452 101.159C413.02 101.159 413.471 101.254 413.804 101.443C414.141 101.629 414.399 101.841 414.577 102.08C414.759 102.314 414.899 102.508 414.997 102.659H415.134V101.273H416.429V110.25C416.429 111 416.259 111.61 415.918 112.08C415.58 112.553 415.126 112.9 414.554 113.119C413.986 113.343 413.353 113.455 412.656 113.455ZM412.611 108.659C413.149 108.659 413.603 108.536 413.974 108.29C414.346 108.044 414.628 107.689 414.821 107.227C415.014 106.765 415.111 106.212 415.111 105.568C415.111 104.939 415.016 104.384 414.827 103.903C414.637 103.422 414.357 103.045 413.986 102.773C413.615 102.5 413.156 102.364 412.611 102.364C412.043 102.364 411.569 102.508 411.19 102.795C410.815 103.083 410.533 103.47 410.344 103.955C410.158 104.439 410.065 104.977 410.065 105.568C410.065 106.174 410.16 106.71 410.349 107.176C410.543 107.638 410.827 108.002 411.202 108.267C411.58 108.528 412.05 108.659 412.611 108.659ZM422.543 110.182C421.702 110.182 420.976 109.996 420.366 109.625C419.76 109.25 419.293 108.727 418.963 108.057C418.637 107.383 418.474 106.598 418.474 105.705C418.474 104.811 418.637 104.023 418.963 103.341C419.293 102.655 419.751 102.121 420.338 101.739C420.929 101.352 421.618 101.159 422.406 101.159C422.861 101.159 423.31 101.235 423.753 101.386C424.196 101.538 424.599 101.784 424.963 102.125C425.327 102.462 425.616 102.909 425.832 103.466C426.048 104.023 426.156 104.708 426.156 105.523V106.091H419.429V104.932H424.793C424.793 104.439 424.694 104 424.497 103.614C424.304 103.227 424.027 102.922 423.668 102.699C423.312 102.475 422.891 102.364 422.406 102.364C421.872 102.364 421.41 102.496 421.02 102.761C420.634 103.023 420.336 103.364 420.128 103.784C419.92 104.205 419.815 104.655 419.815 105.136V105.909C419.815 106.568 419.929 107.127 420.156 107.585C420.387 108.04 420.707 108.386 421.116 108.625C421.526 108.86 422.001 108.977 422.543 108.977C422.895 108.977 423.213 108.928 423.497 108.83C423.785 108.727 424.033 108.576 424.241 108.375C424.45 108.17 424.611 107.917 424.724 107.614L426.02 107.977C425.884 108.417 425.654 108.803 425.332 109.136C425.01 109.466 424.613 109.723 424.139 109.909C423.666 110.091 423.134 110.182 422.543 110.182ZM434.378 103.227L433.173 103.568C433.098 103.367 432.986 103.172 432.838 102.983C432.694 102.79 432.497 102.631 432.247 102.506C431.997 102.381 431.677 102.318 431.287 102.318C430.753 102.318 430.308 102.441 429.952 102.688C429.599 102.93 429.423 103.239 429.423 103.614C429.423 103.947 429.545 104.21 429.787 104.403C430.029 104.597 430.408 104.758 430.923 104.886L432.219 105.205C432.999 105.394 433.58 105.684 433.963 106.074C434.346 106.46 434.537 106.958 434.537 107.568C434.537 108.068 434.393 108.515 434.105 108.909C433.821 109.303 433.423 109.614 432.912 109.841C432.401 110.068 431.806 110.182 431.128 110.182C430.238 110.182 429.501 109.989 428.918 109.602C428.334 109.216 427.965 108.652 427.81 107.909L429.082 107.591C429.204 108.061 429.433 108.413 429.77 108.648C430.111 108.883 430.556 109 431.105 109C431.73 109 432.226 108.867 432.594 108.602C432.965 108.333 433.151 108.011 433.151 107.636C433.151 107.333 433.045 107.08 432.832 106.875C432.62 106.667 432.295 106.511 431.855 106.409L430.401 106.068C429.601 105.879 429.014 105.585 428.639 105.188C428.268 104.786 428.082 104.284 428.082 103.682C428.082 103.189 428.221 102.754 428.497 102.375C428.777 101.996 429.158 101.699 429.639 101.483C430.124 101.267 430.673 101.159 431.287 101.159C432.151 101.159 432.829 101.348 433.321 101.727C433.817 102.106 434.17 102.606 434.378 103.227ZM440.351 101.273V102.409H435.828V101.273H440.351ZM437.146 99.1818H438.487V107.5C438.487 107.879 438.542 108.163 438.652 108.352C438.766 108.538 438.91 108.663 439.084 108.727C439.262 108.788 439.449 108.818 439.646 108.818C439.794 108.818 439.915 108.811 440.01 108.795C440.105 108.777 440.18 108.761 440.237 108.75L440.51 109.955C440.419 109.989 440.292 110.023 440.129 110.057C439.966 110.095 439.76 110.114 439.51 110.114C439.131 110.114 438.76 110.032 438.396 109.869C438.036 109.706 437.737 109.458 437.499 109.125C437.264 108.792 437.146 108.371 437.146 107.864V99.1818ZM442.368 110V101.273H443.709V110H442.368ZM443.05 99.8182C442.788 99.8182 442.563 99.7292 442.374 99.5511C442.188 99.3731 442.095 99.1591 442.095 98.9091C442.095 98.6591 442.188 98.4451 442.374 98.267C442.563 98.089 442.788 98 443.05 98C443.311 98 443.535 98.089 443.72 98.267C443.91 98.4451 444.004 98.6591 444.004 98.9091C444.004 99.1591 443.91 99.3731 443.72 99.5511C443.535 99.7292 443.311 99.8182 443.05 99.8182ZM449.71 110.182C448.922 110.182 448.231 109.994 447.636 109.619C447.045 109.244 446.583 108.72 446.25 108.045C445.92 107.371 445.756 106.583 445.756 105.682C445.756 104.773 445.92 103.979 446.25 103.301C446.583 102.623 447.045 102.097 447.636 101.722C448.231 101.347 448.922 101.159 449.71 101.159C450.498 101.159 451.188 101.347 451.778 101.722C452.373 102.097 452.835 102.623 453.165 103.301C453.498 103.979 453.665 104.773 453.665 105.682C453.665 106.583 453.498 107.371 453.165 108.045C452.835 108.72 452.373 109.244 451.778 109.619C451.188 109.994 450.498 110.182 449.71 110.182ZM449.71 108.977C450.309 108.977 450.801 108.824 451.188 108.517C451.574 108.21 451.86 107.807 452.045 107.307C452.231 106.807 452.324 106.265 452.324 105.682C452.324 105.098 452.231 104.555 452.045 104.051C451.86 103.547 451.574 103.14 451.188 102.83C450.801 102.519 450.309 102.364 449.71 102.364C449.112 102.364 448.619 102.519 448.233 102.83C447.847 103.14 447.561 103.547 447.375 104.051C447.189 104.555 447.097 105.098 447.097 105.682C447.097 106.265 447.189 106.807 447.375 107.307C447.561 107.807 447.847 108.21 448.233 108.517C448.619 108.824 449.112 108.977 449.71 108.977ZM457.053 104.75V110H455.712V101.273H457.007V102.636H457.121C457.325 102.193 457.636 101.837 458.053 101.568C458.469 101.295 459.007 101.159 459.666 101.159C460.257 101.159 460.774 101.28 461.217 101.523C461.661 101.761 462.005 102.125 462.251 102.614C462.498 103.098 462.621 103.712 462.621 104.455V110H461.28V104.545C461.28 103.86 461.102 103.326 460.746 102.943C460.39 102.557 459.901 102.364 459.28 102.364C458.852 102.364 458.469 102.456 458.132 102.642C457.799 102.828 457.536 103.098 457.342 103.455C457.149 103.811 457.053 104.242 457.053 104.75ZM471.253 103.227L470.048 103.568C469.973 103.367 469.861 103.172 469.713 102.983C469.569 102.79 469.372 102.631 469.122 102.506C468.872 102.381 468.552 102.318 468.162 102.318C467.628 102.318 467.183 102.441 466.827 102.688C466.474 102.93 466.298 103.239 466.298 103.614C466.298 103.947 466.42 104.21 466.662 104.403C466.904 104.597 467.283 104.758 467.798 104.886L469.094 105.205C469.874 105.394 470.455 105.684 470.838 106.074C471.221 106.46 471.412 106.958 471.412 107.568C471.412 108.068 471.268 108.515 470.98 108.909C470.696 109.303 470.298 109.614 469.787 109.841C469.276 110.068 468.681 110.182 468.003 110.182C467.113 110.182 466.376 109.989 465.793 109.602C465.209 109.216 464.84 108.652 464.685 107.909L465.957 107.591C466.079 108.061 466.308 108.413 466.645 108.648C466.986 108.883 467.431 109 467.98 109C468.605 109 469.101 108.867 469.469 108.602C469.84 108.333 470.026 108.011 470.026 107.636C470.026 107.333 469.92 107.08 469.707 106.875C469.495 106.667 469.17 106.511 468.73 106.409L467.276 106.068C466.476 105.879 465.889 105.585 465.514 105.188C465.143 104.786 464.957 104.284 464.957 103.682C464.957 103.189 465.096 102.754 465.372 102.375C465.652 101.996 466.033 101.699 466.514 101.483C466.999 101.267 467.548 101.159 468.162 101.159C469.026 101.159 469.704 101.348 470.196 101.727C470.692 102.106 471.045 102.606 471.253 103.227ZM481.726 101.273V102.409H477.203V101.273H481.726ZM478.521 99.1818H479.862V107.5C479.862 107.879 479.917 108.163 480.027 108.352C480.141 108.538 480.285 108.663 480.459 108.727C480.637 108.788 480.824 108.818 481.021 108.818C481.169 108.818 481.29 108.811 481.385 108.795C481.48 108.777 481.555 108.761 481.612 108.75L481.885 109.955C481.794 109.989 481.667 110.023 481.504 110.057C481.341 110.095 481.135 110.114 480.885 110.114C480.506 110.114 480.135 110.032 479.771 109.869C479.411 109.706 479.112 109.458 478.874 109.125C478.639 108.792 478.521 108.371 478.521 107.864V99.1818ZM487.195 110.182C486.407 110.182 485.715 109.994 485.121 109.619C484.53 109.244 484.068 108.72 483.734 108.045C483.405 107.371 483.24 106.583 483.24 105.682C483.24 104.773 483.405 103.979 483.734 103.301C484.068 102.623 484.53 102.097 485.121 101.722C485.715 101.347 486.407 101.159 487.195 101.159C487.982 101.159 488.672 101.347 489.263 101.722C489.857 102.097 490.32 102.623 490.649 103.301C490.982 103.979 491.149 104.773 491.149 105.682C491.149 106.583 490.982 107.371 490.649 108.045C490.32 108.72 489.857 109.244 489.263 109.619C488.672 109.994 487.982 110.182 487.195 110.182ZM487.195 108.977C487.793 108.977 488.286 108.824 488.672 108.517C489.058 108.21 489.344 107.807 489.53 107.307C489.715 106.807 489.808 106.265 489.808 105.682C489.808 105.098 489.715 104.555 489.53 104.051C489.344 103.547 489.058 103.14 488.672 102.83C488.286 102.519 487.793 102.364 487.195 102.364C486.596 102.364 486.104 102.519 485.717 102.83C485.331 103.14 485.045 103.547 484.859 104.051C484.674 104.555 484.581 105.098 484.581 105.682C484.581 106.265 484.674 106.807 484.859 107.307C485.045 107.807 485.331 108.21 485.717 108.517C486.104 108.824 486.596 108.977 487.195 108.977ZM497.696 110V101.273H499.037V110H497.696ZM498.378 99.8182C498.116 99.8182 497.891 99.7292 497.702 99.5511C497.516 99.3731 497.423 99.1591 497.423 98.9091C497.423 98.6591 497.516 98.4451 497.702 98.267C497.891 98.089 498.116 98 498.378 98C498.639 98 498.863 98.089 499.048 98.267C499.238 98.4451 499.332 98.6591 499.332 98.9091C499.332 99.1591 499.238 99.3731 499.048 99.5511C498.863 99.7292 498.639 99.8182 498.378 99.8182ZM501.493 110V101.273H502.788V102.636H502.902C503.084 102.17 503.377 101.809 503.783 101.551C504.188 101.29 504.675 101.159 505.243 101.159C505.819 101.159 506.298 101.29 506.68 101.551C507.067 101.809 507.368 102.17 507.584 102.636H507.675C507.898 102.186 508.233 101.828 508.68 101.562C509.127 101.294 509.663 101.159 510.288 101.159C511.069 101.159 511.707 101.403 512.203 101.892C512.699 102.377 512.947 103.133 512.947 104.159V110H511.607V104.159C511.607 103.515 511.43 103.055 511.078 102.778C510.726 102.502 510.311 102.364 509.834 102.364C509.22 102.364 508.745 102.549 508.408 102.92C508.071 103.288 507.902 103.754 507.902 104.318V110H506.538V104.023C506.538 103.527 506.377 103.127 506.055 102.824C505.733 102.517 505.319 102.364 504.811 102.364C504.463 102.364 504.137 102.456 503.834 102.642C503.535 102.828 503.292 103.085 503.107 103.415C502.925 103.741 502.834 104.117 502.834 104.545V110H501.493ZM515.399 113.273V101.273H516.695V102.659H516.854C516.952 102.508 517.089 102.314 517.263 102.08C517.441 101.841 517.695 101.629 518.024 101.443C518.357 101.254 518.808 101.159 519.376 101.159C520.111 101.159 520.759 101.343 521.32 101.71C521.88 102.078 522.318 102.598 522.632 103.273C522.946 103.947 523.104 104.742 523.104 105.659C523.104 106.583 522.946 107.384 522.632 108.062C522.318 108.737 521.882 109.259 521.325 109.631C520.768 109.998 520.126 110.182 519.399 110.182C518.839 110.182 518.39 110.089 518.053 109.903C517.715 109.714 517.456 109.5 517.274 109.261C517.092 109.019 516.952 108.818 516.854 108.659H516.74V113.273H515.399ZM516.717 105.636C516.717 106.295 516.814 106.877 517.007 107.381C517.2 107.881 517.482 108.273 517.854 108.557C518.225 108.837 518.679 108.977 519.217 108.977C519.778 108.977 520.246 108.83 520.621 108.534C521 108.235 521.284 107.833 521.473 107.33C521.666 106.822 521.763 106.258 521.763 105.636C521.763 105.023 521.668 104.47 521.479 103.977C521.293 103.481 521.011 103.089 520.632 102.801C520.257 102.509 519.786 102.364 519.217 102.364C518.672 102.364 518.214 102.502 517.842 102.778C517.471 103.051 517.191 103.434 517.001 103.926C516.812 104.415 516.717 104.985 516.717 105.636ZM525.149 110V101.273H526.445V102.591H526.536C526.691 102.159 526.977 101.809 527.393 101.54C527.81 101.271 528.282 101.136 528.808 101.136C529.051 101.136 529.263 101.165 529.445 101.222C529.626 101.278 529.786 101.356 529.922 101.455L529.467 102.591C529.373 102.542 529.261 102.504 529.132 102.477C529.007 102.447 528.861 102.432 528.695 102.432C528.27 102.432 527.892 102.521 527.558 102.699C527.229 102.877 526.967 103.119 526.774 103.426C526.585 103.733 526.49 104.083 526.49 104.477V110H525.149ZM534.57 110.182C533.782 110.182 533.09 109.994 532.496 109.619C531.905 109.244 531.443 108.72 531.109 108.045C530.78 107.371 530.615 106.583 530.615 105.682C530.615 104.773 530.78 103.979 531.109 103.301C531.443 102.623 531.905 102.097 532.496 101.722C533.09 101.347 533.782 101.159 534.57 101.159C535.357 101.159 536.047 101.347 536.638 101.722C537.232 102.097 537.695 102.623 538.024 103.301C538.357 103.979 538.524 104.773 538.524 105.682C538.524 106.583 538.357 107.371 538.024 108.045C537.695 108.72 537.232 109.244 536.638 109.619C536.047 109.994 535.357 110.182 534.57 110.182ZM534.57 108.977C535.168 108.977 535.661 108.824 536.047 108.517C536.433 108.21 536.719 107.807 536.905 107.307C537.09 106.807 537.183 106.265 537.183 105.682C537.183 105.098 537.09 104.555 536.905 104.051C536.719 103.547 536.433 103.14 536.047 102.83C535.661 102.519 535.168 102.364 534.57 102.364C533.971 102.364 533.479 102.519 533.092 102.83C532.706 103.14 532.42 103.547 532.234 104.051C532.049 104.555 531.956 105.098 531.956 105.682C531.956 106.265 532.049 106.807 532.234 107.307C532.42 107.807 532.706 108.21 533.092 108.517C533.479 108.824 533.971 108.977 534.57 108.977ZM547.395 101.273L544.168 110H542.804L539.577 101.273H541.031L543.44 108.227H543.531L545.94 101.273H547.395ZM552.511 110.182C551.67 110.182 550.945 109.996 550.335 109.625C549.729 109.25 549.261 108.727 548.932 108.057C548.606 107.383 548.443 106.598 548.443 105.705C548.443 104.811 548.606 104.023 548.932 103.341C549.261 102.655 549.72 102.121 550.307 101.739C550.898 101.352 551.587 101.159 552.375 101.159C552.83 101.159 553.278 101.235 553.722 101.386C554.165 101.538 554.568 101.784 554.932 102.125C555.295 102.462 555.585 102.909 555.801 103.466C556.017 104.023 556.125 104.708 556.125 105.523V106.091H549.398V104.932H554.761C554.761 104.439 554.663 104 554.466 103.614C554.273 103.227 553.996 102.922 553.636 102.699C553.28 102.475 552.86 102.364 552.375 102.364C551.841 102.364 551.379 102.496 550.989 102.761C550.602 103.023 550.305 103.364 550.097 103.784C549.888 104.205 549.784 104.655 549.784 105.136V105.909C549.784 106.568 549.898 107.127 550.125 107.585C550.356 108.04 550.676 108.386 551.085 108.625C551.494 108.86 551.97 108.977 552.511 108.977C552.864 108.977 553.182 108.928 553.466 108.83C553.754 108.727 554.002 108.576 554.21 108.375C554.419 108.17 554.58 107.917 554.693 107.614L555.989 107.977C555.852 108.417 555.623 108.803 555.301 109.136C554.979 109.466 554.581 109.723 554.108 109.909C553.634 110.091 553.102 110.182 552.511 110.182ZM568.165 106.432V101.273H569.506V110H568.165V108.523H568.074C567.869 108.966 567.551 109.343 567.119 109.653C566.688 109.96 566.142 110.114 565.483 110.114C564.938 110.114 564.453 109.994 564.028 109.756C563.604 109.513 563.271 109.15 563.028 108.665C562.786 108.176 562.665 107.561 562.665 106.818V101.273H564.006V106.727C564.006 107.364 564.184 107.871 564.54 108.25C564.9 108.629 565.358 108.818 565.915 108.818C566.248 108.818 566.587 108.733 566.932 108.562C567.28 108.392 567.572 108.131 567.807 107.778C568.045 107.426 568.165 106.977 568.165 106.432ZM578.143 103.227L576.939 103.568C576.863 103.367 576.751 103.172 576.604 102.983C576.46 102.79 576.263 102.631 576.013 102.506C575.763 102.381 575.443 102.318 575.053 102.318C574.518 102.318 574.073 102.441 573.717 102.688C573.365 102.93 573.189 103.239 573.189 103.614C573.189 103.947 573.31 104.21 573.553 104.403C573.795 104.597 574.174 104.758 574.689 104.886L575.984 105.205C576.765 105.394 577.346 105.684 577.729 106.074C578.111 106.46 578.303 106.958 578.303 107.568C578.303 108.068 578.159 108.515 577.871 108.909C577.587 109.303 577.189 109.614 576.678 109.841C576.166 110.068 575.571 110.182 574.893 110.182C574.003 110.182 573.267 109.989 572.683 109.602C572.1 109.216 571.731 108.652 571.575 107.909L572.848 107.591C572.969 108.061 573.198 108.413 573.536 108.648C573.876 108.883 574.321 109 574.871 109C575.496 109 575.992 108.867 576.359 108.602C576.731 108.333 576.916 108.011 576.916 107.636C576.916 107.333 576.81 107.08 576.598 106.875C576.386 106.667 576.06 106.511 575.621 106.409L574.166 106.068C573.367 105.879 572.78 105.585 572.405 105.188C572.034 104.786 571.848 104.284 571.848 103.682C571.848 103.189 571.986 102.754 572.263 102.375C572.543 101.996 572.924 101.699 573.405 101.483C573.89 101.267 574.439 101.159 575.053 101.159C575.916 101.159 576.594 101.348 577.087 101.727C577.583 102.106 577.935 102.606 578.143 103.227ZM580.321 110V101.273H581.662V110H580.321ZM581.003 99.8182C580.741 99.8182 580.516 99.7292 580.327 99.5511C580.141 99.3731 580.048 99.1591 580.048 98.9091C580.048 98.6591 580.141 98.4451 580.327 98.267C580.516 98.089 580.741 98 581.003 98C581.264 98 581.488 98.089 581.673 98.267C581.863 98.4451 581.957 98.6591 581.957 98.9091C581.957 99.1591 581.863 99.3731 581.673 99.5511C581.488 99.7292 581.264 99.8182 581.003 99.8182ZM585.459 104.75V110H584.118V101.273H585.413V102.636H585.527C585.732 102.193 586.042 101.837 586.459 101.568C586.875 101.295 587.413 101.159 588.072 101.159C588.663 101.159 589.18 101.28 589.624 101.523C590.067 101.761 590.411 102.125 590.658 102.614C590.904 103.098 591.027 103.712 591.027 104.455V110H589.686V104.545C589.686 103.86 589.508 103.326 589.152 102.943C588.796 102.557 588.307 102.364 587.686 102.364C587.258 102.364 586.875 102.456 586.538 102.642C586.205 102.828 585.942 103.098 585.749 103.455C585.555 103.811 585.459 104.242 585.459 104.75ZM597 113.455C596.352 113.455 595.795 113.371 595.33 113.205C594.864 113.042 594.475 112.826 594.165 112.557C593.858 112.292 593.614 112.008 593.432 111.705L594.5 110.955C594.621 111.114 594.775 111.295 594.96 111.5C595.146 111.708 595.4 111.888 595.722 112.04C596.047 112.195 596.473 112.273 597 112.273C597.705 112.273 598.286 112.102 598.744 111.761C599.203 111.42 599.432 110.886 599.432 110.159V108.386H599.318C599.22 108.545 599.08 108.742 598.898 108.977C598.72 109.208 598.462 109.415 598.125 109.597C597.792 109.775 597.341 109.864 596.773 109.864C596.068 109.864 595.436 109.697 594.875 109.364C594.318 109.03 593.877 108.545 593.551 107.909C593.229 107.273 593.068 106.5 593.068 105.591C593.068 104.697 593.225 103.919 593.54 103.256C593.854 102.589 594.292 102.074 594.852 101.71C595.413 101.343 596.061 101.159 596.795 101.159C597.364 101.159 597.814 101.254 598.148 101.443C598.485 101.629 598.742 101.841 598.92 102.08C599.102 102.314 599.242 102.508 599.341 102.659H599.477V101.273H600.773V110.25C600.773 111 600.602 111.61 600.261 112.08C599.924 112.553 599.47 112.9 598.898 113.119C598.33 113.343 597.697 113.455 597 113.455ZM596.955 108.659C597.492 108.659 597.947 108.536 598.318 108.29C598.689 108.044 598.972 107.689 599.165 107.227C599.358 106.765 599.455 106.212 599.455 105.568C599.455 104.939 599.36 104.384 599.17 103.903C598.981 103.422 598.701 103.045 598.33 102.773C597.958 102.5 597.5 102.364 596.955 102.364C596.386 102.364 595.913 102.508 595.534 102.795C595.159 103.083 594.877 103.47 594.688 103.955C594.502 104.439 594.409 104.977 594.409 105.568C594.409 106.174 594.504 106.71 594.693 107.176C594.886 107.638 595.17 108.002 595.545 108.267C595.924 108.528 596.394 108.659 596.955 108.659ZM612.636 110.159C611.606 110.159 610.701 109.917 609.92 109.432C609.144 108.947 608.538 108.258 608.102 107.364C607.67 106.47 607.455 105.409 607.455 104.182C607.455 103.261 607.581 102.434 607.835 101.699C608.089 100.96 608.445 100.331 608.903 99.8125C609.366 99.2936 609.909 98.8958 610.534 98.6193C611.163 98.3428 611.848 98.2045 612.591 98.2045C613.205 98.2045 613.78 98.2973 614.318 98.483C614.856 98.6648 615.339 98.9242 615.767 99.2614C616.199 99.5947 616.557 99.9943 616.841 100.46C617.129 100.922 617.326 101.436 617.432 102H615.977C615.86 101.617 615.697 101.275 615.489 100.972C615.28 100.665 615.03 100.403 614.739 100.188C614.447 99.9716 614.121 99.8068 613.761 99.6932C613.402 99.5795 613.011 99.5227 612.591 99.5227C611.902 99.5227 611.271 99.7008 610.699 100.057C610.127 100.413 609.67 100.938 609.33 101.631C608.989 102.324 608.818 103.174 608.818 104.182C608.818 105.189 608.987 106.04 609.324 106.733C609.661 107.426 610.117 107.951 610.693 108.307C611.269 108.663 611.917 108.841 612.636 108.841C613.33 108.841 613.938 108.689 614.46 108.386C614.987 108.08 615.398 107.659 615.693 107.125C615.989 106.587 616.136 105.973 616.136 105.284L616.318 105.432H612.955V104.182H617.5V110H616.318L616.148 108.58H616.091C615.648 109.087 615.153 109.477 614.608 109.75C614.063 110.023 613.405 110.159 612.636 110.159ZM619.727 110V101.273H621.023V102.591H621.114C621.269 102.159 621.555 101.809 621.972 101.54C622.388 101.271 622.86 101.136 623.386 101.136C623.629 101.136 623.841 101.165 624.023 101.222C624.205 101.278 624.364 101.356 624.5 101.455L624.045 102.591C623.951 102.542 623.839 102.504 623.71 102.477C623.585 102.447 623.439 102.432 623.273 102.432C622.848 102.432 622.47 102.521 622.136 102.699C621.807 102.877 621.545 103.119 621.352 103.426C621.163 103.733 621.068 104.083 621.068 104.477V110H619.727ZM629.148 110.182C628.36 110.182 627.669 109.994 627.074 109.619C626.483 109.244 626.021 108.72 625.688 108.045C625.358 107.371 625.193 106.583 625.193 105.682C625.193 104.773 625.358 103.979 625.688 103.301C626.021 102.623 626.483 102.097 627.074 101.722C627.669 101.347 628.36 101.159 629.148 101.159C629.936 101.159 630.625 101.347 631.216 101.722C631.811 102.097 632.273 102.623 632.602 103.301C632.936 103.979 633.102 104.773 633.102 105.682C633.102 106.583 632.936 107.371 632.602 108.045C632.273 108.72 631.811 109.244 631.216 109.619C630.625 109.994 629.936 110.182 629.148 110.182ZM629.148 108.977C629.746 108.977 630.239 108.824 630.625 108.517C631.011 108.21 631.297 107.807 631.483 107.307C631.669 106.807 631.761 106.265 631.761 105.682C631.761 105.098 631.669 104.555 631.483 104.051C631.297 103.547 631.011 103.14 630.625 102.83C630.239 102.519 629.746 102.364 629.148 102.364C628.549 102.364 628.057 102.519 627.67 102.83C627.284 103.14 626.998 103.547 626.812 104.051C626.627 104.555 626.534 105.098 626.534 105.682C626.534 106.265 626.627 106.807 626.812 107.307C626.998 107.807 627.284 108.21 627.67 108.517C628.057 108.824 628.549 108.977 629.148 108.977ZM636.83 110L634.17 101.273H635.58L637.466 107.955H637.557L639.42 101.273H640.852L642.693 107.932H642.784L644.67 101.273H646.08L643.42 110H642.102L640.193 103.295H640.057L638.148 110H636.83ZM651.648 101.273V102.409H647.125V101.273H651.648ZM648.443 99.1818H649.784V107.5C649.784 107.879 649.839 108.163 649.949 108.352C650.063 108.538 650.206 108.663 650.381 108.727C650.559 108.788 650.746 108.818 650.943 108.818C651.091 108.818 651.212 108.811 651.307 108.795C651.402 108.777 651.477 108.761 651.534 108.75L651.807 109.955C651.716 109.989 651.589 110.023 651.426 110.057C651.263 110.095 651.057 110.114 650.807 110.114C650.428 110.114 650.057 110.032 649.693 109.869C649.333 109.706 649.034 109.458 648.795 109.125C648.561 108.792 648.443 108.371 648.443 107.864V99.1818ZM655.193 104.75V110H653.852V98.3636H655.193V102.636H655.307C655.511 102.186 655.818 101.828 656.227 101.562C656.64 101.294 657.189 101.159 657.875 101.159C658.47 101.159 658.991 101.278 659.438 101.517C659.884 101.752 660.231 102.114 660.477 102.602C660.727 103.087 660.852 103.705 660.852 104.455V110H659.511V104.545C659.511 103.852 659.331 103.316 658.972 102.938C658.616 102.555 658.121 102.364 657.489 102.364C657.049 102.364 656.655 102.456 656.307 102.642C655.962 102.828 655.689 103.098 655.489 103.455C655.292 103.811 655.193 104.242 655.193 104.75ZM667.987 98.3636H669.669L673.624 108.023H673.76L677.714 98.3636H679.396V110H678.078V101.159H677.964L674.328 110H673.055L669.419 101.159H669.305V110H667.987V98.3636ZM682.04 110V101.273H683.381V110H682.04ZM682.722 99.8182C682.46 99.8182 682.235 99.7292 682.045 99.5511C681.86 99.3731 681.767 99.1591 681.767 98.9091C681.767 98.6591 681.86 98.4451 682.045 98.267C682.235 98.089 682.46 98 682.722 98C682.983 98 683.206 98.089 683.392 98.267C683.581 98.4451 683.676 98.6591 683.676 98.9091C683.676 99.1591 683.581 99.3731 683.392 99.5511C683.206 99.7292 682.983 99.8182 682.722 99.8182ZM687.178 104.75V110H685.837V101.273H687.132V102.636H687.246C687.45 102.193 687.761 101.837 688.178 101.568C688.594 101.295 689.132 101.159 689.791 101.159C690.382 101.159 690.899 101.28 691.342 101.523C691.786 101.761 692.13 102.125 692.376 102.614C692.623 103.098 692.746 103.712 692.746 104.455V110H691.405V104.545C691.405 103.86 691.227 103.326 690.871 102.943C690.515 102.557 690.026 102.364 689.405 102.364C688.977 102.364 688.594 102.456 688.257 102.642C687.924 102.828 687.661 103.098 687.467 103.455C687.274 103.811 687.178 104.242 687.178 104.75ZM698.491 110.182C697.764 110.182 697.122 109.998 696.565 109.631C696.009 109.259 695.573 108.737 695.259 108.062C694.944 107.384 694.787 106.583 694.787 105.659C694.787 104.742 694.944 103.947 695.259 103.273C695.573 102.598 696.01 102.078 696.571 101.71C697.132 101.343 697.779 101.159 698.514 101.159C699.082 101.159 699.531 101.254 699.861 101.443C700.194 101.629 700.448 101.841 700.622 102.08C700.8 102.314 700.938 102.508 701.037 102.659H701.151V98.3636H702.491V110H701.196V108.659H701.037C700.938 108.818 700.798 109.019 700.616 109.261C700.435 109.5 700.175 109.714 699.838 109.903C699.501 110.089 699.052 110.182 698.491 110.182ZM698.673 108.977C699.211 108.977 699.666 108.837 700.037 108.557C700.408 108.273 700.69 107.881 700.884 107.381C701.077 106.877 701.173 106.295 701.173 105.636C701.173 104.985 701.079 104.415 700.889 103.926C700.7 103.434 700.42 103.051 700.048 102.778C699.677 102.502 699.219 102.364 698.673 102.364C698.105 102.364 697.632 102.509 697.253 102.801C696.878 103.089 696.596 103.481 696.406 103.977C696.221 104.47 696.128 105.023 696.128 105.636C696.128 106.258 696.223 106.822 696.412 107.33C696.605 107.833 696.889 108.235 697.264 108.534C697.643 108.83 698.113 108.977 698.673 108.977ZM711.315 103.227L710.111 103.568C710.035 103.367 709.923 103.172 709.776 102.983C709.632 102.79 709.435 102.631 709.185 102.506C708.935 102.381 708.615 102.318 708.224 102.318C707.69 102.318 707.245 102.441 706.889 102.688C706.537 102.93 706.361 103.239 706.361 103.614C706.361 103.947 706.482 104.21 706.724 104.403C706.967 104.597 707.346 104.758 707.861 104.886L709.156 105.205C709.937 105.394 710.518 105.684 710.901 106.074C711.283 106.46 711.474 106.958 711.474 107.568C711.474 108.068 711.33 108.515 711.043 108.909C710.759 109.303 710.361 109.614 709.849 109.841C709.338 110.068 708.743 110.182 708.065 110.182C707.175 110.182 706.438 109.989 705.855 109.602C705.272 109.216 704.902 108.652 704.747 107.909L706.02 107.591C706.141 108.061 706.37 108.413 706.707 108.648C707.048 108.883 707.493 109 708.043 109C708.668 109 709.164 108.867 709.531 108.602C709.902 108.333 710.088 108.011 710.088 107.636C710.088 107.333 709.982 107.08 709.77 106.875C709.558 106.667 709.232 106.511 708.793 106.409L707.338 106.068C706.539 105.879 705.952 105.585 705.577 105.188C705.205 104.786 705.02 104.284 705.02 103.682C705.02 103.189 705.158 102.754 705.435 102.375C705.715 101.996 706.096 101.699 706.577 101.483C707.062 101.267 707.611 101.159 708.224 101.159C709.088 101.159 709.766 101.348 710.259 101.727C710.755 102.106 711.107 102.606 711.315 103.227ZM717.152 110.182C716.311 110.182 715.586 109.996 714.976 109.625C714.37 109.25 713.902 108.727 713.572 108.057C713.247 107.383 713.084 106.598 713.084 105.705C713.084 104.811 713.247 104.023 713.572 103.341C713.902 102.655 714.36 102.121 714.947 101.739C715.538 101.352 716.228 101.159 717.016 101.159C717.47 101.159 717.919 101.235 718.362 101.386C718.805 101.538 719.209 101.784 719.572 102.125C719.936 102.462 720.226 102.909 720.442 103.466C720.658 104.023 720.766 104.708 720.766 105.523V106.091H714.038V104.932H719.402C719.402 104.439 719.304 104 719.107 103.614C718.913 103.227 718.637 102.922 718.277 102.699C717.921 102.475 717.5 102.364 717.016 102.364C716.482 102.364 716.019 102.496 715.629 102.761C715.243 103.023 714.946 103.364 714.737 103.784C714.529 104.205 714.425 104.655 714.425 105.136V105.909C714.425 106.568 714.538 107.127 714.766 107.585C714.997 108.04 715.317 108.386 715.726 108.625C716.135 108.86 716.61 108.977 717.152 108.977C717.504 108.977 717.822 108.928 718.107 108.83C718.394 108.727 718.643 108.576 718.851 108.375C719.059 108.17 719.22 107.917 719.334 107.614L720.629 107.977C720.493 108.417 720.264 108.803 719.942 109.136C719.62 109.466 719.222 109.723 718.749 109.909C718.275 110.091 717.743 110.182 717.152 110.182ZM726.601 101.273V102.409H722.078V101.273H726.601ZM723.396 99.1818H724.737V107.5C724.737 107.879 724.792 108.163 724.902 108.352C725.016 108.538 725.16 108.663 725.334 108.727C725.512 108.788 725.699 108.818 725.896 108.818C726.044 108.818 726.165 108.811 726.26 108.795C726.355 108.777 726.43 108.761 726.487 108.75L726.76 109.955C726.669 109.989 726.542 110.023 726.379 110.057C726.216 110.095 726.01 110.114 725.76 110.114C725.381 110.114 725.01 110.032 724.646 109.869C724.286 109.706 723.987 109.458 723.749 109.125C723.514 108.792 723.396 108.371 723.396 107.864V99.1818ZM733.3 110V98.3636H734.709V108.75H740.118V110H733.3ZM745.413 110.182C744.686 110.182 744.044 109.998 743.487 109.631C742.93 109.259 742.495 108.737 742.18 108.062C741.866 107.384 741.709 106.583 741.709 105.659C741.709 104.742 741.866 103.947 742.18 103.273C742.495 102.598 742.932 102.078 743.493 101.71C744.054 101.343 744.701 101.159 745.436 101.159C746.004 101.159 746.453 101.254 746.783 101.443C747.116 101.629 747.37 101.841 747.544 102.08C747.722 102.314 747.86 102.508 747.959 102.659H748.072V101.273H749.413V110H748.118V108.659H747.959C747.86 108.818 747.72 109.019 747.538 109.261C747.357 109.5 747.097 109.714 746.76 109.903C746.423 110.089 745.974 110.182 745.413 110.182ZM745.595 108.977C746.133 108.977 746.588 108.837 746.959 108.557C747.33 108.273 747.612 107.881 747.805 107.381C747.999 106.877 748.095 106.295 748.095 105.636C748.095 104.985 748 104.415 747.811 103.926C747.622 103.434 747.341 103.051 746.97 102.778C746.599 102.502 746.141 102.364 745.595 102.364C745.027 102.364 744.554 102.509 744.175 102.801C743.8 103.089 743.518 103.481 743.328 103.977C743.143 104.47 743.05 105.023 743.05 105.636C743.05 106.258 743.144 106.822 743.334 107.33C743.527 107.833 743.811 108.235 744.186 108.534C744.565 108.83 745.035 108.977 745.595 108.977ZM753.396 104.75V110H752.055V101.273H753.351V102.636H753.464C753.669 102.193 753.98 101.837 754.396 101.568C754.813 101.295 755.351 101.159 756.01 101.159C756.601 101.159 757.118 101.28 757.561 101.523C758.004 101.761 758.349 102.125 758.595 102.614C758.841 103.098 758.964 103.712 758.964 104.455V110H757.624V104.545C757.624 103.86 757.446 103.326 757.089 102.943C756.733 102.557 756.245 102.364 755.624 102.364C755.196 102.364 754.813 102.456 754.476 102.642C754.143 102.828 753.879 103.098 753.686 103.455C753.493 103.811 753.396 104.242 753.396 104.75ZM764.938 113.455C764.29 113.455 763.733 113.371 763.267 113.205C762.801 113.042 762.413 112.826 762.102 112.557C761.795 112.292 761.551 112.008 761.369 111.705L762.438 110.955C762.559 111.114 762.712 111.295 762.898 111.5C763.083 111.708 763.337 111.888 763.659 112.04C763.985 112.195 764.411 112.273 764.938 112.273C765.642 112.273 766.223 112.102 766.682 111.761C767.14 111.42 767.369 110.886 767.369 110.159V108.386H767.256C767.157 108.545 767.017 108.742 766.835 108.977C766.657 109.208 766.4 109.415 766.062 109.597C765.729 109.775 765.278 109.864 764.71 109.864C764.006 109.864 763.373 109.697 762.812 109.364C762.256 109.03 761.814 108.545 761.489 107.909C761.167 107.273 761.006 106.5 761.006 105.591C761.006 104.697 761.163 103.919 761.477 103.256C761.792 102.589 762.229 102.074 762.79 101.71C763.35 101.343 763.998 101.159 764.733 101.159C765.301 101.159 765.752 101.254 766.085 101.443C766.422 101.629 766.68 101.841 766.858 102.08C767.04 102.314 767.18 102.508 767.278 102.659H767.415V101.273H768.71V110.25C768.71 111 768.54 111.61 768.199 112.08C767.862 112.553 767.407 112.9 766.835 113.119C766.267 113.343 765.634 113.455 764.938 113.455ZM764.892 108.659C765.43 108.659 765.884 108.536 766.256 108.29C766.627 108.044 766.909 107.689 767.102 107.227C767.295 106.765 767.392 106.212 767.392 105.568C767.392 104.939 767.297 104.384 767.108 103.903C766.919 103.422 766.638 103.045 766.267 102.773C765.896 102.5 765.438 102.364 764.892 102.364C764.324 102.364 763.85 102.508 763.472 102.795C763.097 103.083 762.814 103.47 762.625 103.955C762.439 104.439 762.347 104.977 762.347 105.568C762.347 106.174 762.441 106.71 762.631 107.176C762.824 107.638 763.108 108.002 763.483 108.267C763.862 108.528 764.331 108.659 764.892 108.659ZM776.665 106.432V101.273H778.006V110H776.665V108.523H776.574C776.369 108.966 776.051 109.343 775.619 109.653C775.188 109.96 774.642 110.114 773.983 110.114C773.438 110.114 772.953 109.994 772.528 109.756C772.104 109.513 771.771 109.15 771.528 108.665C771.286 108.176 771.165 107.561 771.165 106.818V101.273H772.506V106.727C772.506 107.364 772.684 107.871 773.04 108.25C773.4 108.629 773.858 108.818 774.415 108.818C774.748 108.818 775.087 108.733 775.432 108.562C775.78 108.392 776.072 108.131 776.307 107.778C776.545 107.426 776.665 106.977 776.665 106.432ZM783.757 110.182C783.03 110.182 782.388 109.998 781.831 109.631C781.274 109.259 780.839 108.737 780.524 108.062C780.21 107.384 780.053 106.583 780.053 105.659C780.053 104.742 780.21 103.947 780.524 103.273C780.839 102.598 781.276 102.078 781.837 101.71C782.397 101.343 783.045 101.159 783.78 101.159C784.348 101.159 784.797 101.254 785.126 101.443C785.46 101.629 785.714 101.841 785.888 102.08C786.066 102.314 786.204 102.508 786.303 102.659H786.416V101.273H787.757V110H786.462V108.659H786.303C786.204 108.818 786.064 109.019 785.882 109.261C785.7 109.5 785.441 109.714 785.104 109.903C784.767 110.089 784.318 110.182 783.757 110.182ZM783.939 108.977C784.477 108.977 784.931 108.837 785.303 108.557C785.674 108.273 785.956 107.881 786.149 107.381C786.342 106.877 786.439 106.295 786.439 105.636C786.439 104.985 786.344 104.415 786.155 103.926C785.965 103.434 785.685 103.051 785.314 102.778C784.943 102.502 784.484 102.364 783.939 102.364C783.371 102.364 782.897 102.509 782.518 102.801C782.143 103.089 781.861 103.481 781.672 103.977C781.486 104.47 781.393 105.023 781.393 105.636C781.393 106.258 781.488 106.822 781.678 107.33C781.871 107.833 782.155 108.235 782.53 108.534C782.909 108.83 783.378 108.977 783.939 108.977ZM793.922 113.455C793.274 113.455 792.717 113.371 792.251 113.205C791.786 113.042 791.397 112.826 791.087 112.557C790.78 112.292 790.536 112.008 790.354 111.705L791.422 110.955C791.543 111.114 791.696 111.295 791.882 111.5C792.068 111.708 792.321 111.888 792.643 112.04C792.969 112.195 793.395 112.273 793.922 112.273C794.626 112.273 795.208 112.102 795.666 111.761C796.125 111.42 796.354 110.886 796.354 110.159V108.386H796.24C796.142 108.545 796.001 108.742 795.82 108.977C795.642 109.208 795.384 109.415 795.047 109.597C794.714 109.775 794.263 109.864 793.695 109.864C792.99 109.864 792.357 109.697 791.797 109.364C791.24 109.03 790.799 108.545 790.473 107.909C790.151 107.273 789.99 106.5 789.99 105.591C789.99 104.697 790.147 103.919 790.462 103.256C790.776 102.589 791.214 102.074 791.774 101.71C792.335 101.343 792.982 101.159 793.717 101.159C794.286 101.159 794.736 101.254 795.07 101.443C795.407 101.629 795.664 101.841 795.842 102.08C796.024 102.314 796.164 102.508 796.263 102.659H796.399V101.273H797.695V110.25C797.695 111 797.524 111.61 797.183 112.08C796.846 112.553 796.392 112.9 795.82 113.119C795.251 113.343 794.619 113.455 793.922 113.455ZM793.876 108.659C794.414 108.659 794.869 108.536 795.24 108.29C795.611 108.044 795.893 107.689 796.087 107.227C796.28 106.765 796.376 106.212 796.376 105.568C796.376 104.939 796.282 104.384 796.092 103.903C795.903 103.422 795.623 103.045 795.251 102.773C794.88 102.5 794.422 102.364 793.876 102.364C793.308 102.364 792.835 102.508 792.456 102.795C792.081 103.083 791.799 103.47 791.609 103.955C791.424 104.439 791.331 104.977 791.331 105.568C791.331 106.174 791.426 106.71 791.615 107.176C791.808 107.638 792.092 108.002 792.467 108.267C792.846 108.528 793.316 108.659 793.876 108.659ZM803.808 110.182C802.967 110.182 802.242 109.996 801.632 109.625C801.026 109.25 800.558 108.727 800.229 108.057C799.903 107.383 799.74 106.598 799.74 105.705C799.74 104.811 799.903 104.023 800.229 103.341C800.558 102.655 801.017 102.121 801.604 101.739C802.195 101.352 802.884 101.159 803.672 101.159C804.126 101.159 804.575 101.235 805.018 101.386C805.462 101.538 805.865 101.784 806.229 102.125C806.592 102.462 806.882 102.909 807.098 103.466C807.314 104.023 807.422 104.708 807.422 105.523V106.091H800.695V104.932H806.058C806.058 104.439 805.96 104 805.763 103.614C805.57 103.227 805.293 102.922 804.933 102.699C804.577 102.475 804.157 102.364 803.672 102.364C803.138 102.364 802.676 102.496 802.286 102.761C801.899 103.023 801.602 103.364 801.393 103.784C801.185 104.205 801.081 104.655 801.081 105.136V105.909C801.081 106.568 801.195 107.127 801.422 107.585C801.653 108.04 801.973 108.386 802.382 108.625C802.791 108.86 803.267 108.977 803.808 108.977C804.161 108.977 804.479 108.928 804.763 108.83C805.051 108.727 805.299 108.576 805.507 108.375C805.715 108.17 805.876 107.917 805.99 107.614L807.286 107.977C807.149 108.417 806.92 108.803 806.598 109.136C806.276 109.466 805.878 109.723 805.405 109.909C804.931 110.091 804.399 110.182 803.808 110.182ZM810.439 110.091C810.159 110.091 809.918 109.991 809.717 109.79C809.517 109.589 809.416 109.348 809.416 109.068C809.416 108.788 809.517 108.547 809.717 108.347C809.918 108.146 810.159 108.045 810.439 108.045C810.719 108.045 810.96 108.146 811.161 108.347C811.361 108.547 811.462 108.788 811.462 109.068C811.462 109.254 811.414 109.424 811.32 109.58C811.229 109.735 811.106 109.86 810.95 109.955C810.799 110.045 810.628 110.091 810.439 110.091Z" fill="#030217"/>
<defs>
<clipPath id="clip0_359_8324">
<rect width="195" height="156" fill="white" transform="translate(153.5 14)"/>
</clipPath>
</defs>
</svg>
