<svg width="21" height="19" viewBox="0 0 21 19" fill="none" xmlns="http://www.w3.org/2000/svg">
<path id="warning" d="M10.5196 0.754883C11.067 0.754883 11.5753 1.07631 11.849 1.55845L20.2947 16.3442C20.5684 16.8665 20.5684 17.4692 20.2947 17.9513C20.021 18.4736 19.5127 18.7549 18.9653 18.7549H2.0738C1.48729 18.7549 0.978983 18.4736 0.705279 17.9513C0.431574 17.4692 0.431574 16.8665 0.705279 16.3442L9.15103 1.55845C9.42473 1.07631 9.93304 0.754883 10.5196 0.754883ZM10.5196 5.89774C9.97214 5.89774 9.58113 6.3397 9.58113 6.86203V11.362C9.58113 11.9245 9.97214 12.3263 10.5196 12.3263C11.0279 12.3263 11.458 11.9245 11.458 11.362V6.86203C11.458 6.3397 11.0279 5.89774 10.5196 5.89774ZM11.7708 14.8977C11.7708 14.2147 11.1843 13.612 10.5196 13.612C9.81574 13.612 9.26833 14.2147 9.26833 14.8977C9.26833 15.621 9.81574 16.1835 10.5196 16.1835C11.1843 16.1835 11.7708 15.621 11.7708 14.8977Z" fill="#CE7522"/>
</svg>
