<svg width="211" height="176" viewBox="0 0 211 176" fill="none" xmlns="http://www.w3.org/2000/svg">
<g opacity="0.4" clip-path="url(#clip0_9952_7254)">
<path opacity="0.7" d="M105.5 10C110.893 10 115.25 14.357 115.25 19.75V156.25C115.25 161.643 110.893 166 105.5 166C100.107 166 95.75 161.643 95.75 156.25V19.75C95.75 14.357 100.107 10 105.5 10ZM164 29.5C169.393 29.5 173.75 33.857 173.75 39.25V136.75C173.75 142.143 169.393 146.5 164 146.5C158.607 146.5 154.25 142.143 154.25 136.75V39.25C154.25 33.857 158.607 29.5 164 29.5ZM47 68.5C52.393 68.5 56.75 72.857 56.75 78.25V97.75C56.75 103.143 52.393 107.5 47 107.5C41.607 107.5 37.25 103.143 37.25 97.75V78.25C37.25 72.857 41.607 68.5 47 68.5Z" fill="#271FA9"/>
<path d="M86 49C86 43.607 81.643 39.25 76.25 39.25C70.857 39.25 66.5 43.607 66.5 49V127C66.5 132.393 70.857 136.75 76.25 136.75C81.643 136.75 86 132.393 86 127V49ZM144.5 58.75C144.5 53.357 140.143 49 134.75 49C129.357 49 125 53.357 125 58.75V117.25C125 122.643 129.357 127 134.75 127C140.143 127 144.5 122.643 144.5 117.25V58.75ZM8 88C8 90.5859 9.02723 93.0658 10.8557 94.8943C12.6842 96.7228 15.1641 97.75 17.75 97.75C20.3359 97.75 22.8158 96.7228 24.6443 94.8943C26.4728 93.0658 27.5 90.5859 27.5 88C27.5 85.4141 26.4728 82.9342 24.6443 81.1057C22.8158 79.2772 20.3359 78.25 17.75 78.25C15.1641 78.25 12.6842 79.2772 10.8557 81.1057C9.02723 82.9342 8 85.4141 8 88ZM183.5 88C183.5 90.5859 184.527 93.0658 186.356 94.8943C188.184 96.7228 190.664 97.75 193.25 97.75C195.836 97.75 198.316 96.7228 200.144 94.8943C201.973 93.0658 203 90.5859 203 88C203 85.4141 201.973 82.9342 200.144 81.1057C198.316 79.2772 195.836 78.25 193.25 78.25C190.664 78.25 188.184 79.2772 186.356 81.1057C184.527 82.9342 183.5 85.4141 183.5 88Z" fill="#271FA9"/>
</g>
<defs>
<clipPath id="clip0_9952_7254">
<rect width="195" height="156" fill="white" transform="translate(8 10)"/>
</clipPath>
</defs>
</svg>
