<svg width="13" height="13" viewBox="0 0 13 13" fill="none" xmlns="http://www.w3.org/2000/svg">
<path id="xmark" d="M12.7363 1.83691L8.04883 6.52441L12.6973 11.1729C13.0879 11.5244 13.0879 12.1104 12.6973 12.4619C12.3457 12.8525 11.7598 12.8525 11.4082 12.4619L6.7207 7.81348L2.07227 12.4619C1.7207 12.8525 1.13477 12.8525 0.783203 12.4619C0.392578 12.1104 0.392578 11.5244 0.783203 11.1338L5.43164 6.48535L0.783203 1.83691C0.392578 1.48535 0.392578 0.899414 0.783203 0.508789C1.13477 0.157227 1.7207 0.157227 2.11133 0.508789L6.75977 5.19629L11.4082 0.547852C11.7598 0.157227 12.3457 0.157227 12.7363 0.547852C13.0879 0.899414 13.0879 1.48535 12.7363 1.83691Z" fill="#333455"/>
</svg>
