<svg width="24" height="24" viewBox="0 0 24 24" fill="none" xmlns="http://www.w3.org/2000/svg">
<path d="M5.7749 3.5249C4.91464 4.18503 4.15648 4.96847 3.5249 5.8499L4.7249 6.7499C5.27573 5.98597 5.93229 5.30416 6.6749 4.7249L5.7749 3.5249Z" fill="#010941" fill-opacity="0.61"/>
<path d="M3.4499 9.2249L2.0249 8.7749C1.66262 9.81092 1.48492 10.9025 1.4999 11.9999H2.9999C2.99685 11.0565 3.14888 10.119 3.4499 9.2249Z" fill="#010941" fill-opacity="0.61"/>
<path d="M2.0249 15.2999C2.37272 16.3457 2.87858 17.3321 3.5249 18.2249L4.7249 17.3249C4.18271 16.5657 3.75325 15.7321 3.4499 14.8499L2.0249 15.2999Z" fill="#010941" fill-opacity="0.61"/>
<path d="M5.8499 20.4749C6.74265 21.1212 7.72907 21.6271 8.7749 21.9749L9.2249 20.5499C8.3427 20.2465 7.50906 19.8171 6.7499 19.2749L5.8499 20.4749Z" fill="#010941" fill-opacity="0.61"/>
<path d="M8.7749 2.0249L9.2249 3.4499C10.119 3.14888 11.0565 2.99685 11.9999 2.9999V1.4999C10.9025 1.48492 9.81092 1.66262 8.7749 2.0249Z" fill="#010941" fill-opacity="0.61"/>
<path d="M18.1499 20.4749C19.0333 19.8165 19.8165 19.0333 20.4749 18.1499L19.2749 17.2499C18.7171 18.0328 18.0328 18.7171 17.2499 19.2749L18.1499 20.4749Z" fill="#010941" fill-opacity="0.61"/>
<path d="M20.5499 14.7749L21.9749 15.2249C22.3011 14.18 22.4779 13.0943 22.4999 11.9999H20.9999C21.0029 12.9433 20.8509 13.8808 20.5499 14.7749Z" fill="#010941" fill-opacity="0.61"/>
<path d="M21.8999 8.6999C21.5521 7.65407 21.0462 6.66765 20.3999 5.7749L19.1999 6.6749C19.7421 7.43406 20.1715 8.2677 20.4749 9.1499L21.8999 8.6999Z" fill="#010941" fill-opacity="0.61"/>
<path d="M18.0749 3.4499C17.1821 2.80358 16.1957 2.29772 15.1499 1.9499L14.6999 3.3749C15.5821 3.67825 16.4157 4.10771 17.1749 4.6499L18.0749 3.4499Z" fill="#010941" fill-opacity="0.61"/>
<path d="M15.2249 21.9749L14.7749 20.5499C13.8808 20.8509 12.9433 21.0029 11.9999 20.9999V22.4999C13.0899 22.435 14.1705 22.259 15.2249 21.9749Z" fill="#010941" fill-opacity="0.61"/>
</svg>
