<svg width="49" height="48" viewBox="0 0 49 48" fill="none" xmlns="http://www.w3.org/2000/svg">
<path d="M23 21H21.5V30H23V21Z" fill="#E81745"/>
<path d="M27.5 21H26V30H27.5V21Z" fill="#E81745"/>
<path d="M15.5 16.5V18H17V33C17 33.3978 17.158 33.7794 17.4393 34.0607C17.7206 34.342 18.1022 34.5 18.5 34.5H30.5C30.8978 34.5 31.2794 34.342 31.5607 34.0607C31.842 33.7794 32 33.3978 32 33V18H33.5V16.5H15.5ZM18.5 33V18H30.5V33H18.5Z" fill="#E81745"/>
<path d="M27.5 13.5H21.5V15H27.5V13.5Z" fill="#E81745"/>
</svg>
