<svg width="49" height="48" viewBox="0 0 49 48" fill="none" xmlns="http://www.w3.org/2000/svg">
<path d="M35.7049 23.745C34.8228 21.4632 33.2914 19.49 31.3 18.0691C29.3086 16.6482 26.9445 15.8419 24.4999 15.75C22.0553 15.8419 19.6912 16.6482 17.6998 18.0691C15.7084 19.49 14.177 21.4632 13.2949 23.745C13.2354 23.9098 13.2354 24.0902 13.2949 24.255C14.177 26.5368 15.7084 28.51 17.6998 29.9309C19.6912 31.3518 22.0553 32.1581 24.4999 32.25C26.9445 32.1581 29.3086 31.3518 31.3 29.9309C33.2914 28.51 34.8228 26.5368 35.7049 24.255C35.7645 24.0902 35.7645 23.9098 35.7049 23.745ZM24.4999 30.75C20.5249 30.75 16.3249 27.8025 14.8024 24C16.3249 20.1975 20.5249 17.25 24.4999 17.25C28.4749 17.25 32.6749 20.1975 34.1974 24C32.6749 27.8025 28.4749 30.75 24.4999 30.75Z" fill="#030217"/>
<path d="M24.4999 19.5C23.6099 19.5 22.7399 19.7639 21.9999 20.2584C21.2598 20.7529 20.6831 21.4557 20.3425 22.2779C20.0019 23.1002 19.9128 24.005 20.0864 24.8779C20.26 25.7508 20.6886 26.5526 21.3179 27.182C21.9473 27.8113 22.7491 28.2399 23.622 28.4135C24.4949 28.5872 25.3997 28.4981 26.222 28.1575C27.0443 27.8169 27.7471 27.2401 28.2415 26.5001C28.736 25.76 28.9999 24.89 28.9999 24C28.9999 22.8065 28.5258 21.6619 27.6819 20.818C26.838 19.9741 25.6934 19.5 24.4999 19.5ZM24.4999 27C23.9066 27 23.3266 26.8241 22.8332 26.4944C22.3399 26.1648 21.9553 25.6962 21.7283 25.1481C21.5012 24.5999 21.4418 23.9967 21.5576 23.4147C21.6733 22.8328 21.959 22.2982 22.3786 21.8787C22.7982 21.4591 23.3327 21.1734 23.9147 21.0576C24.4966 20.9419 25.0998 21.0013 25.648 21.2284C26.1962 21.4554 26.6647 21.8399 26.9943 22.3333C27.324 22.8266 27.4999 23.4067 27.4999 24C27.4999 24.7956 27.1839 25.5587 26.6212 26.1213C26.0586 26.6839 25.2956 27 24.4999 27Z" fill="#030217"/>
</svg>
